<svg version="1.1" id="Layer_1" xmlns="http://www.w3.org/2000/svg" xmlns:xlink="http://www.w3.org/1999/xlink" x="0px" y="0px"
	 width="100%" viewBox="0 0 350 95" enable-background="new 0 0 350 95" xml:space="preserve">
<path fill="#000000" opacity="1.000000" stroke="none" 
	d="
M1.000000,72.000000 
	C1.000000,48.345306 1.000000,24.690617 1.000000,1.017962 
	C117.595657,1.017962 234.191330,1.017962 350.893494,1.017962 
	C350.893494,32.579319 350.893494,64.159119 350.893494,95.869461 
	C234.333450,95.869461 117.666740,95.869461 1.000000,95.869461 
	C1.000000,91.274071 1.000000,86.609695 1.327449,81.480057 
	C2.088334,81.055458 2.521769,81.096130 2.976182,81.566757 
	C3.087456,83.245369 3.177752,84.494034 3.271000,85.783524 
	C4.363777,85.872208 5.016438,85.970398 5.669237,85.971321 
	C14.321213,85.983566 22.975683,85.853851 31.624493,86.020767 
	C40.032330,86.183037 48.546379,83.501793 56.858395,86.928711 
	C57.712055,87.280670 58.854225,86.853630 59.830677,87.000198 
	C65.040985,87.782280 69.628883,85.002831 75.256454,85.454910 
	C88.462097,86.515747 101.883675,84.876472 115.219185,84.364731 
	C115.959549,84.336319 116.708923,84.641495 117.459259,84.758362 
	C122.263580,85.506615 127.098022,87.009003 131.868698,86.829773 
	C141.998062,86.449211 153.621613,78.532829 155.385712,67.993729 
	C156.113861,68.417442 156.562973,68.752182 157.019241,69.482841 
	C156.863571,73.817078 159.072342,75.012444 162.637939,74.992775 
	C172.067200,74.940765 181.497101,75.009705 190.951691,75.439911 
	C191.531677,78.255844 187.100296,81.345306 192.000992,83.582748 
	C192.053696,85.988014 191.675491,88.086670 194.879791,87.989441 
	C201.117737,87.800133 207.624023,89.115646 211.929153,84.690971 
	C214.839142,86.000725 216.997833,87.786293 219.188187,87.825974 
	C233.327988,88.082130 247.474716,87.968536 261.619141,87.949280 
	C265.362946,87.944183 267.818481,86.121994 268.966553,82.529984 
	C269.558075,80.679184 270.228394,78.853561 270.919617,77.416122 
	C271.300873,79.257431 271.625580,80.699181 271.975098,82.517899 
	C272.373260,86.591660 274.648834,87.976402 278.113525,87.974281 
	C292.931763,87.965218 307.749969,87.958145 322.568207,87.977180 
	C326.166748,87.981804 328.663757,86.417084 329.465698,82.875549 
	C330.226654,79.515167 330.505280,76.047470 331.219330,72.674240 
	C334.600769,56.700600 337.977020,40.724777 341.560577,24.795952 
	C342.248718,21.737358 341.775970,19.607954 339.072449,17.574289 
	C337.416016,16.436684 335.814697,15.069757 334.228607,15.087133 
	C319.023071,15.253721 303.820374,15.666951 288.616180,15.976807 
	C285.461273,16.041101 282.249298,16.340500 279.158234,15.886851 
	C272.182404,14.863073 265.417236,14.027109 258.434113,16.577868 
	C255.744186,17.560429 252.235672,16.301949 249.435120,15.924023 
	C249.669891,14.241810 249.569641,12.700112 249.469391,11.158415 
	C248.765640,11.675653 248.061890,12.192889 247.224243,12.303581 
	C243.174301,10.659172 239.235962,9.133061 235.883545,12.326792 
	C231.563293,10.479206 231.510178,10.525505 230.295929,17.689060 
	C226.716843,16.778017 223.220825,15.170750 219.699783,15.113883 
	C202.902786,14.842606 186.098923,14.973448 169.297623,15.013433 
	C166.863754,15.019225 165.267899,15.604334 164.824478,18.803209 
	C164.067017,24.267590 162.396759,29.605442 160.947006,34.648170 
	C159.561981,31.496639 158.339844,28.693373 157.084686,25.574926 
	C156.735626,24.788139 156.419586,24.316536 156.065216,23.493752 
	C153.292358,21.084145 150.848053,18.134687 147.769638,17.131903 
	C137.958817,13.936057 129.031738,16.460716 121.087044,22.579227 
	C117.630188,17.907440 113.110619,15.946936 107.706787,16.064171 
	C107.254829,16.073977 106.829163,17.295799 106.250847,17.672659 
	C105.609726,17.579132 105.109047,17.767466 104.873741,17.499208 
	C103.053192,16.875093 100.699364,16.004709 98.933807,16.677689 
	C94.437668,18.391489 90.204399,20.794937 85.739082,22.984589 
	C78.209579,12.255995 63.468388,14.310843 51.797123,22.312454 
	C48.903004,20.449566 46.417255,17.934626 43.457355,17.098804 
	C28.717970,12.936682 15.624759,18.899813 10.590525,33.998714 
	C9.917502,36.017269 10.930682,38.598034 11.100593,41.336872 
	C10.613531,44.957050 12.081444,46.159195 15.213652,46.023258 
	C18.127554,45.896797 21.054926,46.080688 23.871624,46.440815 
	C16.242538,54.765667 7.068326,61.380493 2.461720,71.882011 
	C2.368624,72.094238 1.504444,71.968216 1.000000,72.000000 
z"/>
<path fill="#F5F7F9" opacity="1.000000" stroke="none" 
	d="
M2.955204,81.136803 
	C2.521769,81.096130 2.088334,81.055458 1.327449,81.007393 
	C1.000000,78.299988 1.000000,75.599968 1.000000,72.449982 
	C1.504444,71.968216 2.368624,72.094238 2.461720,71.882011 
	C7.068326,61.380493 16.242538,54.765667 24.205982,46.275177 
	C25.756804,45.291840 26.868523,44.787010 28.042290,44.618248 
	C28.381876,45.298752 28.659414,45.643185 28.772110,46.272823 
	C22.503656,52.807732 15.961423,58.701279 10.477907,65.454491 
	C7.654286,68.931908 6.715775,73.940018 4.945017,78.573952 
	C4.997387,79.314491 5.030187,79.737541 4.841755,80.355331 
	C4.065417,80.745651 3.510311,80.941223 2.955204,81.136803 
z"/>
<path fill="#4682CB" opacity="1.000000" stroke="none" 
	d="
M235.697617,12.778267 
	C239.235962,9.133061 243.174301,10.659172 247.444321,12.675056 
	C247.925491,14.301983 248.052689,15.150887 248.057159,16.416285 
	C248.634033,21.013216 251.867981,18.388172 253.861481,18.891724 
	C255.836945,19.390722 258.407867,18.516216 257.978119,22.408585 
	C258.311188,26.971052 256.907013,29.277195 252.247818,29.096243 
	C249.990845,29.008587 247.699036,29.818052 244.745560,30.341387 
	C245.877243,31.245008 246.453659,31.705276 247.033417,32.485558 
	C247.019669,33.443119 247.002609,34.080677 246.895325,35.107529 
	C245.145142,41.077229 245.510391,41.679188 252.646362,45.123947 
	C252.127121,55.545368 251.771912,55.986362 243.553833,55.923393 
	C241.466064,54.952030 239.642715,54.167850 237.977219,53.130299 
	C232.770706,49.886845 230.468109,50.173618 225.493881,54.901524 
	C225.296890,54.942200 224.898026,54.994556 224.471100,55.012321 
	C220.710724,55.310379 217.377289,55.590668 213.771652,55.534130 
	C196.054871,55.097878 178.610291,54.998451 160.915466,54.743366 
	C160.085373,54.524231 159.505524,54.460754 158.647079,54.071838 
	C158.737686,50.170231 159.106857,46.594063 159.482727,43.013458 
	C159.489395,43.009018 159.504639,43.010956 159.828690,43.371155 
	C161.108215,43.787910 162.063705,43.844471 163.397369,44.018105 
	C169.815979,44.135174 175.856384,44.135174 181.896790,44.135174 
	C181.899170,43.357067 181.901550,42.578960 181.903931,41.800854 
	C176.026581,41.488571 170.149216,41.176289 164.158905,40.445522 
	C165.267044,32.531303 166.488144,25.035568 167.686478,17.679623 
	C169.081284,17.447832 169.727432,17.247505 170.373840,17.246647 
	C186.027359,17.225887 201.680923,17.213917 217.334351,17.254492 
	C218.262527,17.256897 219.189514,17.712168 220.020996,18.345928 
	C218.531189,25.470385 217.137451,32.205616 215.532440,39.105679 
	C215.052887,39.732430 214.784607,40.194347 214.093170,40.777985 
	C210.532959,40.992077 207.391815,41.014187 204.260147,41.198032 
	C201.532272,41.358177 198.815125,41.700859 196.093231,41.962883 
	C196.167587,42.490204 196.241943,43.017525 196.316299,43.544846 
	C203.931885,43.544846 211.547455,43.544846 219.521759,43.461090 
	C222.633301,40.980324 225.386108,38.583317 228.394043,35.941097 
	C229.376068,33.778641 230.102966,31.861399 230.924393,29.694843 
	C229.642975,29.460396 229.008347,29.220036 228.386368,29.249216 
	C219.717606,29.655912 218.552002,30.968918 221.786499,19.449507 
	C221.830414,19.293043 221.927612,19.151537 222.457870,18.997227 
	C228.070526,19.157473 233.607254,20.124109 235.314041,13.063478 
	C235.342819,12.944457 235.565445,12.872294 235.697617,12.778267 
M185.691772,31.080008 
	C202.542511,31.079880 202.542511,31.079880 203.625916,28.552935 
	C195.048798,26.639540 181.163452,27.652836 179.088715,31.080112 
	C181.283051,31.080112 183.020996,31.080112 185.691772,31.080008 
z"/>
<path fill="#0C3B59" opacity="1.000000" stroke="none" 
	d="
M104.608360,17.955799 
	C105.109047,17.767466 105.609726,17.579132 106.603508,17.814209 
	C110.708244,19.831665 114.319893,21.425711 118.027222,23.365927 
	C118.941780,25.210464 119.760651,26.708834 120.630112,28.299784 
	C133.665237,14.832804 147.526550,14.404618 154.258423,27.386450 
	C153.875366,31.263025 153.840851,34.754913 153.073624,38.077614 
	C152.520142,40.474579 150.991592,42.646400 149.926788,44.964867 
	C149.955627,45.011093 149.922058,44.908100 149.555389,44.771683 
	C149.095001,45.063774 149.001282,45.492279 148.959015,45.933968 
	C149.010468,45.947144 148.919281,45.892117 148.607605,45.655624 
	C147.220200,46.081806 146.144485,46.744476 145.440521,47.178143 
	C146.978958,50.282375 148.269455,53.088486 149.772858,55.775475 
	C150.141891,56.435043 151.206207,56.705597 151.871002,57.497444 
	C151.187943,60.058193 150.584793,62.276497 149.651779,64.658974 
	C146.118546,68.494110 142.915176,72.165070 139.379730,75.912277 
	C137.158524,76.838562 135.269379,77.688614 133.010330,78.501175 
	C131.424942,78.690788 130.209457,78.917885 128.743744,79.096512 
	C128.334793,79.108566 128.176041,79.169098 127.603210,79.178062 
	C122.226196,77.494072 117.263245,75.861641 111.936592,74.109573 
	C111.806496,74.599785 111.363205,76.270088 110.955688,77.967194 
	C110.991463,77.993996 110.947495,77.916161 110.547501,77.787216 
	C109.068695,77.932640 107.989883,78.207016 106.453400,78.413040 
	C95.675278,78.195435 85.354836,78.046173 75.123802,77.537033 
	C76.061592,74.425995 76.973442,71.690842 77.676796,68.903091 
	C77.763260,68.560410 76.735451,67.936592 76.190895,67.039581 
	C77.600983,62.087570 79.044182,57.539032 80.561607,53.400234 
	C80.405136,56.499214 80.174438,59.188454 79.828072,63.226067 
	C81.967644,61.536823 82.920509,60.784515 84.229523,60.038155 
	C89.728004,55.035622 94.870331,50.027145 100.329185,44.895992 
	C102.829918,41.077976 105.335167,37.516998 106.976646,33.594536 
	C107.396515,32.591225 105.345787,29.397129 103.969872,29.053740 
	C101.532898,28.445536 98.693207,29.188286 98.941765,32.967899 
	C98.991920,32.992794 98.908539,32.918022 98.538483,32.847824 
	C97.037178,36.968014 94.367340,38.341232 90.093552,37.795525 
	C87.906700,37.516285 85.585449,38.289597 83.243271,38.147659 
	C83.429108,34.845783 83.696609,31.983446 84.253891,29.277412 
	C85.428001,28.673452 86.312340,27.913191 87.148552,27.130348 
	C87.100426,27.107769 87.128883,27.210211 87.392090,27.112499 
	C87.759918,26.678061 87.864532,26.341333 88.180466,25.740458 
	C93.173279,21.623837 98.287514,18.488903 104.608360,17.955799 
M136.182114,55.134270 
	C128.358826,53.388741 129.408188,47.978420 130.895126,42.373753 
	C130.918396,42.285999 130.695984,42.133068 130.497726,41.964870 
	C130.497726,41.964870 130.418823,42.028542 130.471771,42.978050 
	C137.537796,43.351883 141.415939,40.156799 141.196716,34.142056 
	C141.012695,29.092939 140.111893,28.457659 134.150635,29.901510 
	C131.826920,34.996487 128.325226,37.776943 122.301392,36.661457 
	C121.235710,36.464115 119.544449,37.958057 118.608437,39.065247 
	C115.855080,42.322124 113.542404,45.964783 110.679199,49.112572 
	C105.921234,54.343433 100.868744,59.306389 95.238327,64.779640 
	C94.461472,65.693199 93.684624,66.606758 92.537453,67.955811 
	C99.366280,67.955811 105.466835,67.955811 111.222855,67.955811 
	C111.880806,65.013374 112.440948,62.508373 113.916710,60.091923 
	C117.355972,60.091923 120.795227,60.091923 124.226807,60.091923 
	C124.941910,61.787853 125.544136,63.246452 126.171059,64.694359 
	C126.794838,66.134995 127.564110,68.825363 128.059891,68.777901 
	C130.041748,68.588127 132.382965,68.004639 133.748962,66.691010 
	C135.126999,65.365807 135.507339,63.003147 136.724396,60.531860 
	C136.569260,58.986443 136.414124,57.441021 136.182114,55.134270 
z"/>
<path fill="#4783CB" opacity="1.000000" stroke="none" 
	d="
M149.981628,64.494797 
	C150.584793,62.276497 151.187943,60.058193 151.894577,57.088104 
	C150.971802,52.854916 149.945541,49.373516 148.919281,45.892117 
	C148.919281,45.892117 149.010468,45.947144 149.282135,45.981087 
	C149.676559,45.646057 149.799316,45.277081 149.922058,44.908100 
	C149.922058,44.908100 149.955627,45.011093 150.273651,45.068779 
	C152.120712,42.857990 153.649765,40.589520 155.400085,38.081978 
	C155.778549,37.224514 155.935730,36.606117 156.248016,35.618931 
	C156.542435,32.507698 156.681732,29.765255 156.895691,26.739763 
	C157.019470,26.267849 157.068573,26.078979 157.117691,25.890110 
	C158.339844,28.693373 159.561981,31.496639 160.901031,35.069862 
	C160.513504,38.230198 160.009079,40.620579 159.504639,43.010956 
	C159.504639,43.010956 159.489395,43.009018 159.158661,42.707855 
	C157.496719,44.947350 156.165512,47.488007 154.614105,50.143879 
	C154.296310,50.859032 154.198730,51.458973 154.056030,52.409565 
	C154.663177,54.154396 155.315445,55.548576 156.001190,57.222786 
	C156.058319,57.689339 156.081940,57.875862 156.048172,58.472126 
	C155.696060,61.889492 155.401352,64.897125 155.106644,67.904755 
	C153.621613,78.532829 141.998062,86.449211 131.868698,86.829773 
	C127.098022,87.009003 122.263580,85.506615 117.459259,84.758362 
	C116.708923,84.641495 115.959549,84.336319 115.219185,84.364731 
	C101.883675,84.876472 88.462097,86.515747 75.256454,85.454910 
	C69.628883,85.002831 65.040985,87.782280 59.830677,87.000198 
	C58.854225,86.853630 57.712055,87.280670 56.858395,86.928711 
	C48.546379,83.501793 40.032330,86.183037 31.624493,86.020767 
	C22.975683,85.853851 14.321213,85.983566 5.669237,85.971321 
	C5.016438,85.970398 4.363777,85.872208 3.271000,85.783524 
	C3.177752,84.494034 3.087456,83.245369 2.976182,81.566757 
	C3.510311,80.941223 4.065417,80.745651 5.305060,80.385002 
	C16.410667,80.194923 26.831736,80.169922 37.569164,80.143089 
	C38.247803,79.714340 38.610085,79.287415 38.986496,78.905762 
	C39.000629,78.951035 38.922565,78.897148 39.281990,79.013939 
	C42.611629,76.996574 45.580524,77.204765 48.788750,79.396973 
	C49.701870,79.792809 50.374687,79.927422 51.444427,80.016724 
	C53.873554,80.336205 55.905754,80.700981 58.313141,81.095856 
	C59.609753,80.788368 60.531185,80.450768 61.817261,80.163918 
	C65.166534,78.902084 68.151161,77.589493 71.444229,76.284088 
	C72.122223,77.164230 72.491783,78.037201 73.079735,79.308640 
	C84.553627,79.838226 95.809128,79.969345 107.440338,80.144569 
	C108.859863,79.431175 109.903679,78.673668 110.947495,77.916168 
	C110.947495,77.916161 110.991463,77.993996 111.368874,78.047684 
	C113.167747,78.303871 114.591965,78.488831 116.010162,78.712097 
	C120.680748,79.447388 125.349144,80.196548 130.283752,80.898308 
	C130.831024,80.638451 131.112930,80.420670 131.752960,80.229599 
	C133.056793,80.132431 134.002548,80.008545 135.295685,79.868286 
	C137.438004,78.915047 139.232925,77.978172 141.340775,76.910965 
	C146.065552,73.794228 150.228485,70.639099 149.981628,64.494797 
z"/>
<path fill="#0C3B5A" opacity="1.000000" stroke="none" 
	d="
M339.134674,17.987247 
	C341.775970,19.607954 342.248718,21.737358 341.560577,24.795952 
	C337.977020,40.724777 334.600769,56.700600 331.219330,72.674240 
	C330.505280,76.047470 330.226654,79.515167 329.465698,82.875549 
	C328.663757,86.417084 326.166748,87.981804 322.568207,87.977180 
	C307.749969,87.958145 292.931763,87.965218 278.113525,87.974281 
	C274.648834,87.976402 272.373260,86.591660 272.351166,82.428810 
	C273.468353,81.942398 274.234314,81.922043 275.450256,82.043900 
	C290.955505,82.136841 306.010712,82.087578 321.428894,82.092056 
	C325.710815,80.846939 326.984344,77.854156 327.106659,73.634048 
	C327.069580,71.836678 326.905914,70.448433 326.974670,68.741089 
	C330.670837,52.526508 334.134674,36.631042 337.736328,20.447441 
	C338.294373,19.435286 338.714508,18.711266 339.134674,17.987247 
z"/>
<path fill="#103F5C" opacity="1.000000" stroke="none" 
	d="
M270.863098,77.016563 
	C270.228394,78.853561 269.558075,80.679184 268.966553,82.529984 
	C267.818481,86.121994 265.362946,87.944183 261.619141,87.949280 
	C247.474716,87.968536 233.327988,88.082130 219.188187,87.825974 
	C216.997833,87.786293 214.839142,86.000725 211.929153,84.690971 
	C207.624023,89.115646 201.117737,87.800133 194.879791,87.989441 
	C191.675491,88.086670 192.053696,85.988014 192.308136,83.474274 
	C193.192184,82.342705 193.792252,81.742523 194.814728,81.235550 
	C196.551743,81.339684 197.866547,81.369888 199.180969,81.358345 
	C206.309647,81.295761 208.220779,79.913368 209.740021,73.134918 
	C210.697571,68.862610 211.289429,64.508339 212.337891,60.064194 
	C213.085022,59.260071 213.539612,58.582584 214.383026,57.971729 
	C214.969849,59.435783 215.535904,60.898972 215.300064,62.218876 
	C214.429474,67.090973 213.187225,71.896126 212.292938,76.764694 
	C211.635910,80.341606 212.709457,82.703644 217.460785,82.088951 
	C231.954620,82.118965 245.989029,82.048965 260.344238,82.039734 
	C261.568329,81.528481 262.471649,80.956451 263.692505,80.195389 
	C264.733276,77.650314 265.456512,75.294273 266.480530,72.924026 
	C268.142151,72.939888 269.503021,72.969955 270.931335,73.399216 
	C270.953522,74.871132 270.908295,75.943848 270.863098,77.016563 
z"/>
<path fill="#EBEFF2" opacity="1.000000" stroke="none" 
	d="
M104.873741,17.499210 
	C98.287514,18.488903 93.173279,21.623837 87.964569,25.880806 
	C87.401184,26.593605 87.265038,26.901907 87.128883,27.210211 
	C87.128883,27.210211 87.100426,27.107769 86.748672,27.085493 
	C85.593575,27.042120 84.790230,27.021025 83.784096,26.722034 
	C81.720955,22.238266 78.587051,19.427662 74.079453,18.546022 
	C64.041702,16.582739 56.646488,21.346354 50.503193,28.896851 
	C45.501621,19.231390 38.901783,16.393507 28.841984,19.187563 
	C20.243450,21.575754 16.090429,28.159948 12.982606,36.028378 
	C13.193068,37.092762 13.633612,38.044064 14.050180,39.239643 
	C14.026206,39.483925 14.001381,39.974205 13.723897,40.091072 
	C12.685277,40.444775 11.924141,40.681614 11.163004,40.918449 
	C10.930682,38.598034 9.917502,36.017269 10.590525,33.998714 
	C15.624759,18.899813 28.717970,12.936682 43.457355,17.098804 
	C46.417255,17.934626 48.903004,20.449566 51.797123,22.312454 
	C63.468388,14.310843 78.209579,12.255995 85.739082,22.984589 
	C90.204399,20.794937 94.437668,18.391489 98.933807,16.677689 
	C100.699364,16.004709 103.053192,16.875093 104.873741,17.499210 
z"/>
<path fill="#F8FAFD" opacity="1.000000" stroke="none" 
	d="
M159.828705,43.371155 
	C160.009079,40.620579 160.513504,38.230198 161.063904,35.418129 
	C162.396759,29.605442 164.067017,24.267590 164.824478,18.803209 
	C165.267899,15.604334 166.863754,15.019225 169.297623,15.013433 
	C186.098923,14.973448 202.902786,14.842606 219.699783,15.113883 
	C223.220825,15.170750 226.716843,16.778017 230.295929,17.689060 
	C231.510178,10.525505 231.563293,10.479206 235.883545,12.326789 
	C235.565445,12.872294 235.342819,12.944457 235.314041,13.063478 
	C233.607254,20.124109 228.070526,19.157473 222.297882,18.763887 
	C221.158981,18.343147 220.638031,18.149925 220.117065,17.956703 
	C219.189514,17.712168 218.262527,17.256897 217.334351,17.254492 
	C201.680923,17.213917 186.027359,17.225887 170.373840,17.246647 
	C169.727432,17.247505 169.081284,17.447832 167.686478,17.679623 
	C166.488144,25.035568 165.267044,32.531303 163.823532,40.719105 
	C163.407150,42.241127 163.213165,43.071079 163.019180,43.901031 
	C162.063705,43.844471 161.108215,43.787910 159.828705,43.371155 
z"/>
<path fill="#0C3C5A" opacity="1.000000" stroke="none" 
	d="
M190.926758,75.030518 
	C181.497101,75.009705 172.067200,74.940765 162.637939,74.992775 
	C159.072342,75.012444 156.863571,73.817078 156.928162,69.403152 
	C156.829910,68.927536 156.951294,68.717979 157.421295,68.775879 
	C169.415253,68.833771 180.939224,68.833771 192.692139,68.833771 
	C192.692139,70.629494 192.692139,71.735718 192.499115,73.049469 
	C191.846313,73.848175 191.386536,74.439354 190.926758,75.030518 
z"/>
<path fill="#F6F8FB" opacity="1.000000" stroke="none" 
	d="
M339.072449,17.574289 
	C338.714508,18.711266 338.294373,19.435286 337.427551,20.229736 
	C336.732391,20.258743 336.483917,20.217319 336.338379,19.784855 
	C335.785553,18.687712 335.068695,17.326149 334.484009,17.380735 
	C330.356628,17.766066 326.256409,18.442333 321.836884,19.129490 
	C321.379517,19.842533 321.232788,20.451834 321.056549,21.056179 
	C321.027039,21.051224 320.998627,20.998507 320.648071,21.019001 
	C319.596619,21.023050 318.895721,21.006609 318.197113,20.565964 
	C318.479126,16.884583 316.073914,17.359097 314.176056,17.350609 
	C304.724609,17.308346 295.271545,17.418137 285.822021,17.276863 
	C282.970062,17.234226 281.432556,18.242361 280.683441,21.025295 
	C279.600281,21.001291 278.878265,20.982336 277.920349,20.680328 
	C274.295929,14.994988 268.904785,17.487148 264.438629,17.602718 
	C263.184845,17.635162 262.036560,21.744978 260.611053,23.787371 
	C259.598877,23.059233 258.815521,22.528250 258.032196,21.997269 
	C258.407867,18.516216 255.836945,19.390722 253.861481,18.891724 
	C251.867981,18.388172 248.634033,21.013216 248.287582,16.426619 
	C248.640762,16.020460 249.100113,16.064539 249.100113,16.064539 
	C252.235672,16.301949 255.744186,17.560429 258.434113,16.577868 
	C265.417236,14.027109 272.182404,14.863073 279.158234,15.886851 
	C282.249298,16.340500 285.461273,16.041101 288.616180,15.976807 
	C303.820374,15.666951 319.023071,15.253721 334.228607,15.087133 
	C335.814697,15.069757 337.416016,16.436684 339.072449,17.574289 
z"/>
<path fill="#4A85CC" opacity="1.000000" stroke="none" 
	d="
M11.100594,41.336872 
	C11.924141,40.681614 12.685277,40.444775 14.181965,40.148457 
	C19.054701,39.765079 23.191883,39.441181 27.552963,38.928764 
	C27.895542,37.989746 28.014225,37.239250 28.385674,36.224369 
	C28.832617,35.266068 29.026798,34.572151 29.432041,33.637291 
	C30.781420,32.838223 31.919739,32.280090 33.058056,31.721958 
	C33.219456,33.064259 33.950756,34.702946 33.435638,35.693405 
	C31.876541,38.691223 29.834246,41.437740 27.980242,44.282181 
	C26.868523,44.787010 25.756804,45.291840 24.310726,45.962311 
	C21.054926,46.080688 18.127554,45.896797 15.213652,46.023258 
	C12.081444,46.159195 10.613531,44.957050 11.100594,41.336872 
z"/>
<path fill="#F4F7FB" opacity="1.000000" stroke="none" 
	d="
M270.919617,77.416122 
	C270.908295,75.943848 270.953522,74.871132 270.909546,73.056122 
	C270.470184,71.132996 269.491821,69.200722 269.866791,68.887245 
	C273.741791,65.647652 273.479431,60.775047 275.079132,56.661331 
	C275.466431,55.665359 276.246765,54.822224 277.165405,53.953354 
	C277.912567,54.023510 278.340698,54.049122 278.772156,54.447762 
	C279.215729,56.165329 279.655945,57.509861 280.062927,59.150555 
	C279.976410,59.839222 279.923035,60.231735 279.486938,60.711655 
	C277.480560,66.138405 275.754364,71.450493 274.322113,76.840683 
	C274.044525,77.885300 274.914001,79.234703 275.176025,80.805466 
	C275.065186,81.412186 275.032715,81.656937 275.000244,81.901688 
	C274.234314,81.922043 273.468353,81.942398 272.326355,82.051849 
	C271.625580,80.699181 271.300873,79.257431 270.919617,77.416122 
z"/>
<path fill="#ECF0F2" opacity="1.000000" stroke="none" 
	d="
M154.293259,26.929319 
	C147.526550,14.404618 133.665237,14.832804 120.630112,28.299784 
	C119.760651,26.708834 118.941780,25.210464 118.429039,23.359642 
	C119.538574,22.986267 120.341988,22.965345 121.145393,22.944426 
	C129.031738,16.460716 137.958817,13.936057 147.769638,17.131903 
	C150.848053,18.134687 153.292358,21.084145 156.044830,23.885853 
	C156.029831,25.414587 155.996887,26.200041 155.685028,26.977701 
	C155.035156,26.956379 154.664200,26.942850 154.293259,26.929319 
z"/>
<path fill="#EDF2F7" opacity="1.000000" stroke="none" 
	d="
M155.385712,67.993729 
	C155.401352,64.897125 155.696060,61.889492 156.313873,58.293270 
	C156.908249,57.131203 157.179520,56.557724 157.616165,55.841557 
	C158.162918,55.264999 158.544281,54.831135 158.925659,54.397270 
	C159.505524,54.460754 160.085373,54.524231 160.657166,54.909004 
	C160.467041,55.586964 160.284958,55.943630 159.924911,56.616611 
	C159.529648,60.238991 159.312332,63.545052 159.059113,67.130310 
	C158.990433,67.594200 158.957642,67.778893 158.644806,67.965683 
	C157.893631,68.217850 157.422455,68.467911 156.951294,68.717979 
	C156.951294,68.717979 156.829910,68.927536 156.920990,69.007233 
	C156.562973,68.752182 156.113861,68.417442 155.385712,67.993729 
z"/>
<path fill="#EBEFF2" opacity="1.000000" stroke="none" 
	d="
M121.087044,22.579227 
	C120.341988,22.965345 119.538574,22.986267 118.333351,23.013474 
	C114.319893,21.425711 110.708244,19.831665 106.743942,18.096069 
	C106.829163,17.295799 107.254829,16.073977 107.706787,16.064171 
	C113.110619,15.946936 117.630188,17.907440 121.087044,22.579227 
z"/>
<path fill="#F1F5F9" opacity="1.000000" stroke="none" 
	d="
M190.951691,75.439919 
	C191.386536,74.439354 191.846313,73.848175 192.989349,73.088776 
	C194.000000,72.938309 194.327393,72.956062 194.570038,73.428452 
	C194.454315,76.302841 194.423309,78.722595 194.392319,81.142342 
	C193.792252,81.742523 193.192184,82.342705 192.284973,83.051361 
	C187.100296,81.345306 191.531677,78.255844 190.951691,75.439919 
z"/>
<path fill="#F8FAFD" opacity="1.000000" stroke="none" 
	d="
M249.435120,15.924023 
	C249.100113,16.064539 248.640762,16.020460 248.410339,16.010126 
	C248.052689,15.150887 247.925491,14.301983 247.578217,13.081603 
	C248.061890,12.192889 248.765640,11.675653 249.469391,11.158415 
	C249.569641,12.700112 249.669891,14.241810 249.435120,15.924023 
z"/>
<path fill="#ADC3D9" opacity="1.000000" stroke="none" 
	d="
M155.963959,26.985493 
	C155.996887,26.200041 156.029831,25.414587 156.083160,24.237034 
	C156.419586,24.316536 156.735626,24.788139 157.084686,25.574928 
	C157.068573,26.078979 157.019470,26.267849 156.681793,26.730877 
	C156.393234,27.005035 155.963959,26.985493 155.963959,26.985493 
z"/>
<path fill="#0B3A59" opacity="1.000000" stroke="none" 
	d="
M13.212688,35.915291 
	C16.090429,28.159948 20.243450,21.575754 28.841984,19.187563 
	C38.901783,16.393507 45.501621,19.231390 50.503193,28.896851 
	C56.646488,21.346354 64.041702,16.582739 74.079453,18.546022 
	C78.587051,19.427662 81.720955,22.238266 83.727791,27.073046 
	C83.904221,28.175003 83.934166,28.648056 83.964111,29.121109 
	C83.696609,31.983446 83.429108,34.845783 83.246994,38.450920 
	C83.294586,39.792835 83.256790,40.391953 83.045807,41.358200 
	C82.211105,45.380859 81.549591,49.036381 80.900932,52.673843 
	C80.913795,52.655777 80.913597,52.619499 80.781273,52.682648 
	C80.648949,52.745792 80.487381,52.990494 80.487381,52.990494 
	C79.044182,57.539032 77.600983,62.087570 76.219017,67.373703 
	C74.195709,70.426994 72.111176,72.742691 69.684990,75.152145 
	C58.713150,81.324799 52.847958,80.449402 42.578529,71.251053 
	C41.359661,73.799644 40.141113,76.348396 38.922565,78.897148 
	C38.922565,78.897148 39.000629,78.951035 38.876945,78.590240 
	C38.118679,78.290154 37.484089,78.350861 36.392540,78.371407 
	C25.598867,78.306313 15.262156,78.281387 4.925447,78.256454 
	C6.715775,73.940018 7.654286,68.931908 10.477907,65.454491 
	C15.961423,58.701279 22.503656,52.807732 29.094631,46.166740 
	C31.844194,42.781574 34.515804,40.001064 36.226009,36.719513 
	C37.384212,34.497162 38.495083,31.109837 34.582191,29.754351 
	C31.206942,28.585112 28.802860,29.896166 27.280867,33.201168 
	C25.030619,38.087574 18.110559,39.357861 13.212688,35.915291 
M32.048100,57.603458 
	C31.790363,57.808723 31.596418,58.062698 31.043344,58.597618 
	C30.786991,58.802910 30.593830,59.056355 30.041157,59.590462 
	C29.785389,59.796204 29.592335,60.049694 29.039362,60.583691 
	C28.784073,60.789890 28.591084,61.043495 28.038031,61.577480 
	C27.783396,61.783989 27.590099,62.037292 27.022528,62.570877 
	C26.759012,62.779869 26.560051,63.038509 25.932585,63.626614 
	C25.655840,64.083328 25.379093,64.540039 24.871414,65.398277 
	C24.871414,65.398277 24.811270,65.857559 24.043795,65.927849 
	C23.419079,66.452942 22.794363,66.978035 21.473732,68.088074 
	C28.668146,68.088074 34.853756,68.088074 41.795452,68.040375 
	C41.941933,66.309151 42.088413,64.577919 42.554668,62.088882 
	C42.680809,60.733738 42.806950,59.378593 43.118980,57.276924 
	C44.253113,53.137363 45.387241,48.997803 46.521374,44.858242 
	C46.091125,44.637482 45.660877,44.416718 45.230629,44.195953 
	C43.638645,45.963665 42.046665,47.731373 40.049900,49.716976 
	C39.796486,49.906902 39.615059,50.150459 39.085777,50.665234 
	C38.827908,50.862209 38.642796,51.112900 38.070507,51.668133 
	C37.860180,51.942917 37.649857,52.217701 37.012032,52.724140 
	C36.738838,52.918461 36.540291,53.171379 35.992260,53.717102 
	C35.721031,53.912544 35.525276,54.166229 34.980770,54.713490 
	C34.708347,54.907940 34.510799,55.160873 33.966743,55.711685 
	C33.695744,55.907597 33.499760,56.161427 32.997719,56.684361 
	C32.758636,56.864536 32.583702,57.093681 32.048100,57.603458 
M56.781597,60.776661 
	C57.109379,62.861843 57.437160,64.947029 58.097530,67.762497 
	C60.100502,66.892799 63.551399,66.389053 63.878269,65.095749 
	C66.587280,54.377041 68.835304,43.534828 70.929718,32.673466 
	C71.365829,30.411877 70.024910,28.540838 66.373833,29.194908 
	C61.192181,32.262280 61.889477,37.710823 60.143173,42.692055 
	C59.114468,48.450958 58.085758,54.209858 56.781597,60.776661 
z"/>
<path fill="#C3D0DC" opacity="1.000000" stroke="none" 
	d="
M12.982606,36.028378 
	C18.110559,39.357861 25.030619,38.087574 27.280867,33.201168 
	C28.802860,29.896166 31.206942,28.585112 34.582191,29.754351 
	C38.495083,31.109837 37.384212,34.497162 36.226009,36.719513 
	C34.515804,40.001064 31.844194,42.781574 29.259474,45.881535 
	C28.659414,45.643185 28.381876,45.298752 28.042290,44.618248 
	C29.834246,41.437740 31.876541,38.691223 33.435638,35.693405 
	C33.950756,34.702946 33.219456,33.064259 33.058056,31.721958 
	C31.919739,32.280090 30.781420,32.838223 29.127459,33.864929 
	C28.452181,35.051918 28.292545,35.770332 28.132912,36.488750 
	C28.014225,37.239250 27.895542,37.989746 27.061069,38.892838 
	C22.254906,39.028740 18.164530,39.012051 14.074155,38.995361 
	C13.633612,38.044064 13.193068,37.092762 12.982606,36.028378 
z"/>
<path fill="#EDF2F7" opacity="1.000000" stroke="none" 
	d="
M4.945017,78.573952 
	C15.262156,78.281387 25.598867,78.306313 36.440929,78.664940 
	C37.048458,79.380730 37.150631,79.762817 37.252804,80.144913 
	C26.831736,80.169922 16.410667,80.194923 5.526292,80.190254 
	C5.030187,79.737541 4.997387,79.314491 4.945017,78.573952 
z"/>
<path fill="#0C3B59" opacity="1.000000" stroke="none" 
	d="
M224.898026,54.994553 
	C224.898026,54.994556 225.296890,54.942200 225.894592,54.946411 
	C228.724335,54.131912 230.956406,53.313202 232.274780,52.829624 
	C236.618683,54.356941 240.341888,55.666019 244.446686,57.030769 
	C246.557022,57.471729 248.285782,57.857014 250.101257,58.401573 
	C250.340378,58.757519 250.533051,58.899548 250.846741,59.333866 
	C250.577835,60.795631 250.228165,61.910461 249.470993,63.006321 
	C245.466309,62.239422 241.869141,61.491489 238.355881,60.761009 
	C237.890305,63.320839 237.479126,65.581566 236.647018,67.914948 
	C233.884338,68.297668 231.536316,68.616653 232.029297,64.653900 
	C232.439209,62.969196 232.766068,61.624031 233.494049,60.186062 
	C234.337784,59.257694 234.780396,58.422134 234.974777,58.055202 
	C231.327057,56.947266 228.112534,55.970909 224.898026,54.994553 
z"/>
<path fill="#E6EDF4" opacity="1.000000" stroke="none" 
	d="
M250.014526,58.242298 
	C248.285782,57.857014 246.557022,57.471729 244.421310,56.782406 
	C244.014343,56.478367 243.890472,55.994652 243.890472,55.994652 
	C251.771912,55.986362 252.127121,55.545368 252.646362,45.123947 
	C245.510391,41.679188 245.145142,41.077229 247.227997,35.079746 
	C247.736465,33.786545 247.822021,32.910419 248.244003,31.891874 
	C249.753281,31.513369 250.926132,31.277285 251.902069,31.375597 
	C248.072647,38.258041 248.926682,39.952351 257.268219,41.857388 
	C255.905258,48.471752 254.538269,55.105667 253.212494,62.040863 
	C253.505264,62.895020 253.756790,63.447899 253.743073,64.119614 
	C252.975800,64.526230 252.473770,64.814018 251.675262,65.016747 
	C250.878708,64.296219 250.378616,63.660755 249.878510,63.025288 
	C250.228165,61.910461 250.577835,60.795631 250.880661,59.090347 
	C250.656540,58.109337 250.383438,58.023472 250.014526,58.242298 
z"/>
<path fill="#E0E8F0" opacity="1.000000" stroke="none" 
	d="
M224.471100,55.012321 
	C228.112534,55.970909 231.327057,56.947266 234.974777,58.055202 
	C234.780396,58.422134 234.337784,59.257694 233.134216,59.994083 
	C227.789917,59.124775 223.206543,58.354637 218.757172,57.607014 
	C217.386398,63.992458 215.991821,69.098122 215.323517,74.297150 
	C215.061890,76.332558 216.429703,78.577415 217.041275,81.042374 
	C217.018555,81.568214 217.009949,81.778572 217.001358,81.988937 
	C212.709457,82.703644 211.635910,80.341606 212.292938,76.764694 
	C213.187225,71.896126 214.429474,67.090973 215.300064,62.218876 
	C215.535904,60.898972 214.969849,59.435783 214.386871,57.632725 
	C214.015869,56.775051 214.029861,56.323006 214.043839,55.870964 
	C217.377289,55.590668 220.710724,55.310379 224.471100,55.012321 
z"/>
<path fill="#E0EAF6" opacity="1.000000" stroke="none" 
	d="
M185.225372,31.080059 
	C183.020996,31.080112 181.283051,31.080112 179.088715,31.080112 
	C181.163452,27.652836 195.048798,26.639540 203.625916,28.552935 
	C202.542511,31.079880 202.542511,31.079880 185.225372,31.080059 
z"/>
<path fill="#C9D9EC" opacity="1.000000" stroke="none" 
	d="
M220.020996,18.345928 
	C220.638031,18.149925 221.158981,18.343147 221.839935,18.769711 
	C221.927612,19.151537 221.830414,19.293043 221.786499,19.449507 
	C218.552002,30.968918 219.717606,29.655912 228.386368,29.249216 
	C229.008347,29.220036 229.642975,29.460396 230.924393,29.694843 
	C230.102966,31.861399 229.376068,33.778641 228.245148,35.680084 
	C227.526642,35.425449 227.212158,35.186607 226.953171,34.597229 
	C226.562408,33.264122 225.942459,31.388708 225.696655,31.436529 
	C223.124802,31.936853 220.289352,32.265614 218.216080,33.663826 
	C217.121185,34.402214 217.383316,37.152813 216.710297,38.986328 
	C216.173126,38.965443 215.958435,38.953144 215.743729,38.940845 
	C217.137451,32.205616 218.531189,25.470385 220.020996,18.345928 
z"/>
<path fill="#E0EAF6" opacity="1.000000" stroke="none" 
	d="
M219.163040,43.544846 
	C211.547455,43.544846 203.931885,43.544846 196.316299,43.544846 
	C196.241943,43.017525 196.167587,42.490204 196.093231,41.962883 
	C198.815125,41.700859 201.532272,41.358177 204.260147,41.198032 
	C207.391815,41.014187 210.532959,40.992077 214.439255,40.899948 
	C215.449478,40.930542 215.690445,40.960892 216.014862,41.363361 
	C217.067596,41.900791 218.036880,42.066105 219.039185,42.560513 
	C219.102493,43.108021 219.132767,43.326435 219.163040,43.544846 
z"/>
<path fill="#E8EFF8" opacity="1.000000" stroke="none" 
	d="
M213.771652,55.534134 
	C214.029861,56.323006 214.015869,56.775051 213.998047,57.566097 
	C213.539612,58.582584 213.085022,59.260071 212.078339,59.851810 
	C212.604385,56.042309 210.173431,56.283218 207.731171,56.288441 
	C191.855133,56.322380 175.978989,56.302528 160.102875,56.300293 
	C160.284958,55.943630 160.467041,55.586964 160.907410,55.064663 
	C178.610291,54.998451 196.054871,55.097878 213.771652,55.534134 
z"/>
<path fill="#E8EFF8" opacity="1.000000" stroke="none" 
	d="
M163.397369,44.018105 
	C163.213165,43.071079 163.407150,42.241127 163.936493,41.137592 
	C170.149216,41.176289 176.026581,41.488571 181.903931,41.800854 
	C181.901550,42.578960 181.899170,43.357067 181.896790,44.135174 
	C175.856384,44.135174 169.815979,44.135174 163.397369,44.018105 
z"/>
<path fill="#E8EFF8" opacity="1.000000" stroke="none" 
	d="
M252.098984,31.041199 
	C250.926132,31.277285 249.753281,31.513369 248.016861,31.872725 
	C247.453293,31.995995 247.030090,32.165550 247.030090,32.165550 
	C246.453659,31.705276 245.877243,31.245008 244.745560,30.341387 
	C247.699036,29.818052 249.990845,29.008587 252.247818,29.096243 
	C256.907013,29.277195 258.311188,26.971052 257.978119,22.408587 
	C258.815521,22.528250 259.598877,23.059233 260.526825,24.160282 
	C260.494141,30.474657 257.153290,31.921680 252.098984,31.041199 
z"/>
<path fill="#13415F" opacity="1.000000" stroke="none" 
	d="
M243.553833,55.923393 
	C243.890472,55.994652 244.014343,56.478367 244.039703,56.726730 
	C240.341888,55.666019 236.618683,54.356941 232.274780,52.829624 
	C230.956406,53.313202 228.724335,54.131912 226.091583,54.905735 
	C230.468109,50.173618 232.770706,49.886845 237.977219,53.130299 
	C239.642715,54.167850 241.466064,54.952030 243.553833,55.923393 
z"/>
<path fill="#E8EFF8" opacity="1.000000" stroke="none" 
	d="
M158.647079,54.071835 
	C158.544281,54.831135 158.162918,55.264999 157.292206,55.867661 
	C156.524490,56.338554 156.246109,56.640659 155.967712,56.942757 
	C155.315445,55.548576 154.663177,54.154396 154.323563,52.266045 
	C154.702255,51.190800 154.768280,50.609730 154.834305,50.028664 
	C156.165512,47.488007 157.496719,44.947350 159.151978,42.712296 
	C159.106857,46.594063 158.737686,50.170231 158.647079,54.071835 
z"/>
<path fill="#E3EBF6" opacity="1.000000" stroke="none" 
	d="
M219.521759,43.461090 
	C219.132767,43.326435 219.102493,43.108021 219.268188,42.307091 
	C221.942001,39.465633 224.419846,37.206699 226.897675,34.947765 
	C227.212158,35.186607 227.526642,35.425449 227.990021,35.925301 
	C225.386108,38.583317 222.633301,40.980324 219.521759,43.461090 
z"/>
<path fill="#C6D4E1" opacity="1.000000" stroke="none" 
	d="
M215.931427,40.991245 
	C215.690445,40.960892 215.449478,40.930542 214.862427,40.778229 
	C214.784607,40.194347 215.052887,39.732430 215.532440,39.105679 
	C215.958435,38.953144 216.173126,38.965443 216.739868,39.298561 
	C216.705078,40.076672 216.318253,40.533958 215.931427,40.991245 
z"/>
<path fill="#214C68" opacity="1.000000" stroke="none" 
	d="
M247.033417,32.485558 
	C247.030090,32.165550 247.453293,31.995995 247.680435,32.015144 
	C247.822021,32.910419 247.736465,33.786545 247.318237,34.690453 
	C247.002609,34.080677 247.019669,33.443119 247.033417,32.485558 
z"/>
<path fill="#4783CB" opacity="1.000000" stroke="none" 
	d="
M130.418823,42.028542 
	C130.418823,42.028542 130.497726,41.964870 130.176422,42.005920 
	C128.873398,43.056484 127.891655,44.065998 126.535446,45.042564 
	C125.439636,45.261887 124.434586,45.294392 124.041946,45.801277 
	C120.974365,49.761475 118.024414,53.812782 114.666275,57.889908 
	C113.549973,58.028255 112.805542,58.112659 111.715393,58.244049 
	C110.579903,59.300934 109.367531,60.202911 109.077095,61.340313 
	C108.078812,65.249771 105.527641,66.447418 101.836388,66.208466 
	C100.529686,66.123878 99.209915,66.241234 97.990845,65.925003 
	C105.663071,57.246086 113.179672,48.851303 120.896393,40.644703 
	C121.842735,39.638287 123.844276,39.303131 125.384071,39.229862 
	C133.070190,38.864136 133.073395,38.931442 135.398041,31.440884 
	C138.726044,30.889812 139.256317,32.572914 138.487686,34.840321 
	C137.180313,38.697102 135.198349,41.983780 130.418823,42.028542 
z"/>
<path fill="#4D88CD" opacity="1.000000" stroke="none" 
	d="
M83.873367,60.032204 
	C82.920509,60.784515 81.967644,61.536823 79.828072,63.226067 
	C80.174438,59.188454 80.405136,56.499214 80.561607,53.400234 
	C80.487381,52.990494 80.648949,52.745792 80.909233,52.626465 
	C81.347237,52.471275 81.525169,52.436504 82.037247,52.174118 
	C83.280418,48.304321 84.189667,44.663227 85.368073,40.778217 
	C87.094948,40.344898 88.552658,40.155495 90.434509,40.020920 
	C92.565331,40.027252 94.272018,39.978756 96.346725,39.889973 
	C97.446014,37.539135 98.177277,35.228580 98.908539,32.918022 
	C98.908539,32.918022 98.991920,32.992794 99.342743,32.998070 
	C101.025505,32.821735 102.357445,32.640129 103.689377,32.458523 
	C103.631279,33.714901 103.953552,35.160572 103.440880,36.190731 
	C102.115677,38.853619 100.421982,41.333130 98.559929,44.033375 
	C90.804459,47.062477 86.183197,52.499550 83.873367,60.032204 
z"/>
<path fill="#AEC2D6" opacity="1.000000" stroke="none" 
	d="
M135.042130,31.567019 
	C133.073395,38.931442 133.070190,38.864136 125.384071,39.229862 
	C123.844276,39.303131 121.842735,39.638287 120.896393,40.644703 
	C113.179672,48.851303 105.663071,57.246086 97.750832,66.096390 
	C96.924149,65.866837 96.432220,65.124504 95.940300,64.382179 
	C100.868744,59.306389 105.921234,54.343433 110.679199,49.112572 
	C113.542404,45.964783 115.855080,42.322124 118.608437,39.065247 
	C119.544449,37.958057 121.235710,36.464115 122.301392,36.661457 
	C128.325226,37.776943 131.826920,34.996487 134.548615,30.254574 
	C134.978455,30.927431 135.010284,31.247225 135.042130,31.567019 
z"/>
<path fill="#EDF2F7" opacity="1.000000" stroke="none" 
	d="
M112.061111,58.197063 
	C112.805542,58.112659 113.549973,58.028255 115.124001,57.954041 
	C119.635208,57.906384 123.316826,57.848534 127.318344,57.950630 
	C129.368561,60.035694 130.270035,65.058456 134.128998,60.087219 
	C134.997284,60.619572 135.661041,60.857292 136.324783,61.095016 
	C135.507339,63.003147 135.126999,65.365807 133.748962,66.691010 
	C132.382965,68.004639 130.041748,68.588127 128.059891,68.777901 
	C127.564110,68.825363 126.794838,66.134995 126.171059,64.694359 
	C125.544136,63.246452 124.941910,61.787853 124.226807,60.091923 
	C120.795227,60.091923 117.355972,60.091923 113.367798,59.808990 
	C112.566292,59.083061 112.313698,58.640064 112.061111,58.197063 
z"/>
<path fill="#EDF1F4" opacity="1.000000" stroke="none" 
	d="
M84.229523,60.038155 
	C86.183197,52.499550 90.804459,47.062477 98.797379,44.170837 
	C99.571121,44.446751 99.791885,44.732708 100.012650,45.018669 
	C94.870331,50.027145 89.728004,55.035622 84.229523,60.038155 
z"/>
<path fill="#DDE5ED" opacity="1.000000" stroke="none" 
	d="
M111.715393,58.244049 
	C112.313698,58.640064 112.566292,59.083061 112.909988,59.764717 
	C112.440948,62.508373 111.880806,65.013374 111.222855,67.955811 
	C105.466835,67.955811 99.366280,67.955811 92.537453,67.955811 
	C93.684624,66.606758 94.461472,65.693199 95.589310,64.580910 
	C96.432220,65.124504 96.924149,65.866837 97.656097,66.437775 
	C99.209915,66.241234 100.529686,66.123878 101.836388,66.208466 
	C105.527641,66.447418 108.078812,65.249771 109.077095,61.340313 
	C109.367531,60.202911 110.579903,59.300934 111.715393,58.244049 
z"/>
<path fill="#EDF2F7" opacity="1.000000" stroke="none" 
	d="
M107.064629,80.100456 
	C95.809128,79.969345 84.553627,79.838226 73.404099,79.301544 
	C74.018173,78.562958 74.526276,78.229942 75.034386,77.896919 
	C85.354836,78.046173 95.675278,78.195435 106.458176,78.684631 
	C106.968628,79.383194 107.016632,79.741829 107.064629,80.100456 
z"/>
<path fill="#CBD8E5" opacity="1.000000" stroke="none" 
	d="
M100.329178,44.895992 
	C99.791885,44.732708 99.571121,44.446751 99.112900,44.023331 
	C100.421982,41.333130 102.115677,38.853619 103.440880,36.190731 
	C103.953552,35.160572 103.631279,33.714901 103.689377,32.458523 
	C102.357445,32.640129 101.025505,32.821735 99.292587,32.973175 
	C98.693207,29.188286 101.532898,28.445536 103.969872,29.053740 
	C105.345787,29.397129 107.396515,32.591225 106.976646,33.594536 
	C105.335167,37.516998 102.829918,41.077976 100.329178,44.895992 
z"/>
<path fill="#BECFE1" opacity="1.000000" stroke="none" 
	d="
M134.948288,79.884659 
	C134.002548,80.008545 133.056793,80.132431 131.472351,80.244476 
	C130.561905,80.468552 130.290146,80.704468 130.018387,80.940384 
	C125.349144,80.196548 120.680748,79.447388 116.010162,78.712097 
	C114.591965,78.488831 113.167747,78.303871 111.333099,78.020882 
	C111.363205,76.270088 111.806496,74.599785 111.936592,74.109573 
	C117.263245,75.861641 122.226196,77.494072 127.705856,79.309799 
	C128.222565,79.493088 128.681839,79.516472 128.681839,79.516472 
	C128.681839,79.516472 128.993958,79.144989 128.993958,79.144989 
	C130.209457,78.917885 131.424942,78.690788 133.307190,78.690559 
	C134.298706,79.239838 134.623505,79.562256 134.948288,79.884659 
z"/>
<path fill="#E4EAEF" opacity="1.000000" stroke="none" 
	d="
M126.909920,45.075512 
	C127.891655,44.065998 128.873398,43.056484 130.221680,42.028763 
	C130.695984,42.133068 130.918396,42.285999 130.895126,42.373753 
	C129.408188,47.978420 128.358826,53.388741 135.739731,55.602921 
	C134.977005,56.131222 134.656662,56.190880 134.046783,56.098854 
	C131.564224,55.959812 129.371216,55.972466 126.979416,55.626682 
	C126.823730,51.870667 126.866821,48.473091 126.909920,45.075512 
z"/>
<path fill="#DAE3EC" opacity="1.000000" stroke="none" 
	d="
M135.398041,31.440884 
	C135.010284,31.247225 134.978455,30.927431 134.886993,30.128901 
	C140.111893,28.457659 141.012695,29.092939 141.196716,34.142056 
	C141.415939,40.156799 137.537796,43.351883 130.445297,42.503296 
	C135.198349,41.983780 137.180313,38.697102 138.487686,34.840321 
	C139.256317,32.572914 138.726044,30.889812 135.398041,31.440884 
z"/>
<path fill="#BBCCDC" opacity="1.000000" stroke="none" 
	d="
M155.685028,26.977701 
	C155.963959,26.985493 156.393234,27.005035 156.607132,27.013924 
	C156.681732,29.765255 156.542435,32.507698 155.975342,35.818661 
	C155.424667,37.031807 155.301758,37.676434 155.178833,38.321053 
	C153.649765,40.589520 152.120712,42.857990 150.244797,45.022552 
	C150.991592,42.646400 152.520142,40.474579 153.073624,38.077614 
	C153.840851,34.754913 153.875366,31.263025 154.258423,27.386450 
	C154.664200,26.942850 155.035156,26.956379 155.685028,26.977701 
z"/>
<path fill="#C3D0DC" opacity="1.000000" stroke="none" 
	d="
M75.123802,77.537033 
	C74.526276,78.229942 74.018173,78.562958 73.185699,78.903076 
	C72.491783,78.037201 72.122223,77.164230 71.216461,76.120010 
	C70.462387,75.651970 70.244514,75.355179 70.026642,75.058380 
	C72.111176,72.742691 74.195709,70.426994 76.252121,67.777176 
	C76.735451,67.936592 77.763260,68.560410 77.676796,68.903091 
	C76.973442,71.690842 76.061592,74.425995 75.123802,77.537033 
z"/>
<path fill="#CBD8E5" opacity="1.000000" stroke="none" 
	d="
M90.010376,39.966095 
	C88.552658,40.155495 87.094948,40.344898 85.054138,40.771564 
	C84.053688,41.002911 83.636337,40.996990 83.218987,40.991066 
	C83.256790,40.391953 83.294586,39.792835 83.328667,38.890457 
	C85.585449,38.289597 87.906700,37.516285 90.093552,37.795525 
	C94.367340,38.341232 97.037178,36.968014 98.538490,32.847824 
	C98.177277,35.228580 97.446014,37.539135 96.089325,39.637371 
	C93.646065,39.605400 91.828217,39.785748 90.010376,39.966095 
z"/>
<path fill="#A5BCD3" opacity="1.000000" stroke="none" 
	d="
M149.651779,64.658974 
	C150.228485,70.639099 146.065552,73.794228 141.183350,76.649391 
	C140.379257,76.290787 140.045532,76.063408 139.711792,75.836029 
	C142.915176,72.165070 146.118546,68.494110 149.651779,64.658974 
z"/>
<path fill="#BBCCDC" opacity="1.000000" stroke="none" 
	d="
M148.607605,45.655624 
	C149.945541,49.373516 150.971802,52.854916 151.974457,56.745655 
	C151.206207,56.705597 150.141891,56.435043 149.772858,55.775475 
	C148.269455,53.088486 146.978958,50.282375 145.440521,47.178143 
	C146.144485,46.744476 147.220200,46.081806 148.607605,45.655624 
z"/>
<path fill="#AEC2D6" opacity="1.000000" stroke="none" 
	d="
M139.379730,75.912277 
	C140.045532,76.063408 140.379257,76.290787 140.870422,76.779739 
	C139.232925,77.978172 137.438004,78.915047 135.295685,79.868294 
	C134.623505,79.562256 134.298706,79.239838 133.677063,78.728043 
	C135.269379,77.688614 137.158524,76.838562 139.379730,75.912277 
z"/>
<path fill="#F1F5F9" opacity="1.000000" stroke="none" 
	d="
M134.336304,56.250542 
	C134.656662,56.190880 134.977005,56.131222 135.778168,55.983582 
	C136.414124,57.441021 136.569260,58.986443 136.524597,60.813438 
	C135.661041,60.857292 134.997284,60.619572 134.227509,59.793224 
	C134.193085,58.219910 134.264694,57.235226 134.336304,56.250542 
z"/>
<path fill="#BECFE1" opacity="1.000000" stroke="none" 
	d="
M107.440338,80.144569 
	C107.016632,79.741829 106.968628,79.383194 106.915855,78.752975 
	C107.989883,78.207016 109.068695,77.932640 110.547501,77.787216 
	C109.903679,78.673668 108.859863,79.431175 107.440338,80.144569 
z"/>
<path fill="#ECF0F2" opacity="1.000000" stroke="none" 
	d="
M84.253891,29.277412 
	C83.934166,28.648056 83.904221,28.175003 83.930580,27.350939 
	C84.790230,27.021025 85.593575,27.042120 86.796799,27.108072 
	C86.312340,27.913191 85.428001,28.673452 84.253891,29.277412 
z"/>
<path fill="#BBCCDC" opacity="1.000000" stroke="none" 
	d="
M149.555389,44.771683 
	C149.799316,45.277081 149.676559,45.646057 149.230682,45.967911 
	C149.001282,45.492279 149.095001,45.063774 149.555389,44.771683 
z"/>
<path fill="#AEC2D6" opacity="1.000000" stroke="none" 
	d="
M128.743744,79.096512 
	C128.993958,79.144989 128.681839,79.516472 128.681839,79.516472 
	C128.681839,79.516472 128.222565,79.493088 128.119934,79.361359 
	C128.176041,79.169098 128.334793,79.108566 128.743744,79.096512 
z"/>
<path fill="#ECF0F2" opacity="1.000000" stroke="none" 
	d="
M87.392090,27.112499 
	C87.265038,26.901907 87.401184,26.593605 87.753235,26.144955 
	C87.864532,26.341333 87.759918,26.678061 87.392090,27.112499 
z"/>
<path fill="#A6B7C3" opacity="1.000000" stroke="none" 
	d="
M69.684990,75.152145 
	C70.244514,75.355179 70.462387,75.651970 70.908028,76.112839 
	C68.151161,77.589493 65.166534,78.902084 61.421726,80.135536 
	C59.753685,80.392860 58.845821,80.729309 57.937958,81.065758 
	C55.905754,80.700981 53.873554,80.336205 51.221184,79.740448 
	C49.916828,79.384903 49.232635,79.260330 48.548447,79.135757 
	C45.580524,77.204765 42.611629,76.996574 39.281990,79.013939 
	C40.141113,76.348396 41.359661,73.799644 42.578529,71.251053 
	C52.847958,80.449402 58.713150,81.324799 69.684990,75.152145 
z"/>
<path fill="#A6B7C3" opacity="1.000000" stroke="none" 
	d="
M37.569164,80.143089 
	C37.150631,79.762817 37.048458,79.380730 36.897892,78.705101 
	C37.484089,78.350861 38.118679,78.290154 38.862816,78.544968 
	C38.610085,79.287415 38.247803,79.714340 37.569164,80.143089 
z"/>
<path fill="#A5BCD3" opacity="1.000000" stroke="none" 
	d="
M58.313141,81.095856 
	C58.845821,80.729309 59.753685,80.392860 61.057083,80.084785 
	C60.531185,80.450768 59.609753,80.788368 58.313141,81.095856 
z"/>
<path fill="#4882CB" opacity="1.000000" stroke="none" 
	d="
M154.614105,50.143875 
	C154.768280,50.609730 154.702255,51.190800 154.368683,51.915390 
	C154.198730,51.458973 154.296310,50.859032 154.614105,50.143875 
z"/>
<path fill="#A6BACC" opacity="1.000000" stroke="none" 
	d="
M48.788750,79.396973 
	C49.232635,79.260330 49.916828,79.384903 50.824261,79.785751 
	C50.374687,79.927422 49.701870,79.792809 48.788750,79.396973 
z"/>
<path fill="#ADC3D9" opacity="1.000000" stroke="none" 
	d="
M155.400085,38.081985 
	C155.301758,37.676434 155.424667,37.031807 155.820251,36.187450 
	C155.935730,36.606117 155.778549,37.224514 155.400085,38.081985 
z"/>
<path fill="#99B9DF" opacity="1.000000" stroke="none" 
	d="
M156.001190,57.222786 
	C156.246109,56.640659 156.524490,56.338554 157.126831,56.010353 
	C157.179520,56.557724 156.908249,57.131203 156.371277,57.883533 
	C156.081940,57.875862 156.058319,57.689339 156.001190,57.222786 
z"/>
<path fill="#AEC2D6" opacity="1.000000" stroke="none" 
	d="
M130.283752,80.898315 
	C130.290146,80.704468 130.561905,80.468552 131.114258,80.217758 
	C131.112930,80.420670 130.831024,80.638451 130.283752,80.898315 
z"/>
<path fill="#A6BDD5" opacity="1.000000" stroke="none" 
	d="
M337.289673,20.517872 
	C334.134674,36.631042 330.670837,52.526508 326.645142,68.721710 
	C325.651245,68.937546 325.219208,68.853645 324.914154,68.414276 
	C326.313019,62.085236 327.584930,56.111675 329.121094,49.946281 
	C329.224976,48.743206 329.064575,47.731968 329.094360,46.415154 
	C330.846924,40.406124 332.409271,34.702679 334.203461,28.838017 
	C334.543091,28.324482 334.650848,27.972160 334.735107,27.256540 
	C334.805298,25.928247 334.899048,24.963253 335.220459,23.836197 
	C335.552734,23.324320 335.657379,22.974504 335.733582,22.362019 
	C335.881958,21.458199 336.058716,20.817049 336.235474,20.175898 
	C336.483917,20.217319 336.732391,20.258743 337.289673,20.517872 
z"/>
<path fill="#D3E2F2" opacity="1.000000" stroke="none" 
	d="
M324.787201,68.769753 
	C325.219208,68.853645 325.651245,68.937546 326.412781,69.040817 
	C326.905914,70.448433 327.069580,71.836678 326.812073,73.603943 
	C325.996948,73.955742 325.603027,73.928513 325.182007,73.499710 
	C323.639954,72.533249 322.133240,71.506905 320.608704,71.479645 
	C311.832214,71.322739 303.051331,71.427147 294.272339,71.376076 
	C292.888031,71.368027 291.505737,71.019218 290.122498,70.827957 
	C290.185089,70.141891 290.247681,69.455818 290.310303,68.769753 
	C301.802582,68.769753 313.294891,68.769753 324.787201,68.769753 
z"/>
<path fill="#E3EBF6" opacity="1.000000" stroke="none" 
	d="
M275.450256,82.043900 
	C275.032715,81.656937 275.065186,81.412186 275.619507,80.868530 
	C291.037903,80.512917 305.934479,80.456200 320.874420,80.672806 
	C320.967194,81.310188 321.016541,81.674255 321.065918,82.038315 
	C306.010712,82.087578 290.955505,82.136841 275.450256,82.043900 
z"/>
<path fill="#96B5DA" opacity="1.000000" stroke="none" 
	d="
M321.428894,82.092056 
	C321.016541,81.674255 320.967194,81.310188 321.211792,80.494064 
	C322.740173,77.995087 323.974640,75.948181 325.209106,73.901283 
	C325.603027,73.928513 325.996948,73.955742 326.685486,74.013069 
	C326.984344,77.854156 325.710815,80.846939 321.428894,82.092056 
z"/>
<path fill="#4280CA" opacity="1.000000" stroke="none" 
	d="
M159.924911,56.616608 
	C175.978989,56.302528 191.855133,56.322380 207.731171,56.288441 
	C210.173431,56.283218 212.604385,56.042309 211.785782,59.978455 
	C211.289429,64.508339 210.697571,68.862610 209.740021,73.134918 
	C208.220779,79.913368 206.309647,81.295761 199.180969,81.358345 
	C197.866547,81.369888 196.551743,81.339684 194.814728,81.235550 
	C194.423309,78.722595 194.454315,76.302841 194.725922,73.094978 
	C194.650070,70.467148 197.555588,67.360329 192.499100,67.132233 
	C181.057419,66.990944 170.076218,66.921028 159.095032,66.851112 
	C159.312332,63.545052 159.529648,60.238991 159.924911,56.616608 
z"/>
<path fill="#103D5C" opacity="1.000000" stroke="none" 
	d="
M251.971710,65.101807 
	C252.473770,64.814018 252.975800,64.526230 254.190689,64.210449 
	C257.204926,64.188576 259.527557,64.396210 261.802917,64.155891 
	C265.680359,63.746365 268.753754,62.189510 269.111328,57.296272 
	C270.000061,53.633163 270.873260,50.356678 271.808136,47.421421 
	C272.516632,48.340153 273.163452,48.917660 274.001526,49.770157 
	C277.117615,49.931667 277.593567,51.500191 276.846375,53.908810 
	C276.246765,54.822224 275.466431,55.665359 275.079132,56.661331 
	C273.479431,60.775047 273.741791,65.647652 269.866791,68.887245 
	C269.491821,69.200722 270.470184,71.132996 270.842133,72.656921 
	C269.503021,72.969955 268.142151,72.939888 266.427643,72.990143 
	C266.074036,73.070465 265.904846,73.064552 266.014648,72.791405 
	C266.374451,72.000473 266.624390,71.482689 266.926819,70.539490 
	C265.954742,69.452927 264.969299,68.303535 263.898682,68.217834 
	C259.937653,67.900764 255.948486,67.934845 251.994141,67.495491 
	C252.002838,66.469948 251.987274,65.785881 251.971710,65.101807 
z"/>
<path fill="#E8EFF8" opacity="1.000000" stroke="none" 
	d="
M217.460785,82.088951 
	C217.009949,81.778572 217.018555,81.568214 217.505661,81.023331 
	C231.935638,80.592766 245.887100,80.496727 259.871368,80.663925 
	C259.943939,81.277756 259.983673,81.628365 260.023438,81.978966 
	C245.989029,82.048965 231.954620,82.118965 217.460785,82.088951 
z"/>
<path fill="#9BB9DC" opacity="1.000000" stroke="none" 
	d="
M266.126892,73.004349 
	C265.456512,75.294273 264.733276,77.650314 263.441772,79.939819 
	C262.705963,79.704079 262.538422,79.534874 262.564636,79.078789 
	C263.807190,76.882782 264.856018,74.973663 265.904846,73.064545 
	C265.904846,73.064552 266.074036,73.070465 266.126892,73.004349 
z"/>
<path fill="#9BB9DC" opacity="1.000000" stroke="none" 
	d="
M260.344238,82.039734 
	C259.983673,81.628365 259.943939,81.277756 260.181030,80.505699 
	C261.095581,79.844719 261.733246,79.605202 262.370911,79.365677 
	C262.538422,79.534874 262.705963,79.704079 263.124237,80.128845 
	C262.471649,80.956451 261.568329,81.528481 260.344238,82.039734 
z"/>
<path fill="#C2D1E0" opacity="1.000000" stroke="none" 
	d="
M14.050180,39.239643 
	C18.164530,39.012051 22.254906,39.028740 26.837173,39.081360 
	C23.191883,39.441181 19.054701,39.765079 14.459449,40.031593 
	C14.001381,39.974205 14.026206,39.483925 14.050180,39.239643 
z"/>
<path fill="#D2DBE0" opacity="1.000000" stroke="none" 
	d="
M192.959595,67.203613 
	C197.555588,67.360329 194.650070,70.467148 194.810654,72.640335 
	C194.327393,72.956062 194.000000,72.938309 193.182373,72.881241 
	C192.692139,71.735718 192.692139,70.629494 192.692139,68.833771 
	C180.939224,68.833771 169.415253,68.833771 157.421295,68.775879 
	C157.422455,68.467911 157.893631,68.217850 159.121582,67.977737 
	C166.336655,67.991692 172.796921,68.095032 179.252563,67.965996 
	C183.824829,67.874596 188.390808,67.468971 192.959595,67.203613 
z"/>
<path fill="#4481CA" opacity="1.000000" stroke="none" 
	d="
M334.992767,23.998255 
	C334.899048,24.963253 334.805298,25.928247 334.537872,27.445992 
	C334.233307,28.332239 334.102478,28.665737 333.971619,28.999233 
	C332.409271,34.702679 330.846924,40.406124 328.699280,46.521149 
	C324.399841,46.974876 320.685669,47.017025 316.941254,46.643822 
	C317.514130,43.038765 318.117279,39.849056 318.790955,36.286495 
	C314.123016,35.957169 310.781281,34.455742 311.779694,29.267117 
	C309.673096,29.267117 307.959198,29.267117 306.245300,29.267117 
	C305.988037,29.626755 305.730774,29.986391 305.473541,30.346029 
	C307.440369,32.307663 309.091980,34.922501 311.455109,36.063046 
	C314.310394,37.441109 314.653229,39.179096 313.876953,41.574112 
	C313.019867,44.218510 314.035095,48.488625 308.591339,47.900414 
	C306.807251,47.319626 305.389069,46.741665 303.658752,46.009979 
	C300.875519,44.077759 298.404388,42.299259 295.431519,40.159653 
	C294.694916,40.982128 293.787048,41.995811 292.622986,43.221214 
	C290.512207,44.649357 288.657623,45.865788 286.489075,47.082642 
	C285.725159,47.676708 285.275208,48.270344 284.422455,48.915287 
	C282.669342,49.043446 281.319031,49.120296 279.640747,48.998383 
	C278.255310,47.486580 276.328552,46.175091 276.326202,44.860168 
	C276.321686,42.331715 277.407166,39.801315 278.415894,37.207012 
	C283.272552,35.456081 287.999298,34.086346 290.375824,28.285532 
	C287.131378,28.088276 284.422882,28.435118 282.079590,27.667347 
	C278.053345,26.348166 281.190002,23.307589 281.044586,21.030342 
	C281.432556,18.242361 282.970062,17.234226 285.822021,17.276863 
	C295.271545,17.418137 304.724609,17.308346 314.176056,17.350609 
	C316.073914,17.359097 318.479126,16.884583 317.960144,20.748652 
	C317.557892,22.984905 317.394897,24.614267 317.233765,26.243565 
	C322.079926,26.646442 322.079926,26.646442 320.998627,20.998507 
	C320.998627,20.998507 321.027039,21.051224 321.330017,20.996456 
	C321.804504,20.303040 321.976013,19.664391 322.147522,19.025745 
	C326.256409,18.442333 330.356628,17.766066 334.484009,17.380735 
	C335.068695,17.326149 335.785553,18.687712 336.338379,19.784859 
	C336.058716,20.817049 335.881958,21.458199 335.540222,22.552094 
	C335.247742,23.335976 335.120239,23.667112 334.992767,23.998255 
z"/>
<path fill="#4581CA" opacity="1.000000" stroke="none" 
	d="
M271.746460,47.080196 
	C270.873260,50.356678 270.000061,53.633163 268.769562,57.446968 
	C264.359528,63.406578 258.636993,62.051926 253.171280,61.739582 
	C254.538269,55.105667 255.905258,48.471752 257.268219,41.857388 
	C248.926682,39.952351 248.072647,38.258041 251.902069,31.375595 
	C257.153290,31.921680 260.494141,30.474657 260.755676,24.357437 
	C262.036560,21.744978 263.184845,17.635162 264.438629,17.602718 
	C268.904785,17.487148 274.295929,14.994988 277.803131,20.710630 
	C277.921844,21.023985 277.682129,21.058210 277.441803,21.272057 
	C276.775665,22.643820 276.349854,23.801735 275.557434,25.032951 
	C274.082703,29.263411 272.856995,33.394714 271.933655,37.592518 
	C271.632965,38.959675 272.121307,40.500389 272.198303,42.302704 
	C272.129364,43.100506 272.110962,43.557323 272.039490,44.344765 
	C272.069824,45.110733 272.153290,45.546078 272.155853,46.274723 
	C271.965485,46.738743 271.855988,46.909470 271.746460,47.080196 
z"/>
<path fill="#BBCFE6" opacity="1.000000" stroke="none" 
	d="
M280.683441,21.025295 
	C281.190002,23.307589 278.053345,26.348166 282.079590,27.667347 
	C284.422882,28.435118 287.131378,28.088276 290.375824,28.285532 
	C287.999298,34.086346 283.272552,35.456081 278.406403,36.849785 
	C278.014862,36.083904 278.008148,35.610542 278.374542,35.089706 
	C280.810211,34.023468 282.872772,33.004700 284.935333,31.985931 
	C279.208771,31.061493 276.981140,28.314047 277.885803,22.997417 
	C277.990753,22.380426 277.758209,21.706007 277.682129,21.058210 
	C277.682129,21.058210 277.921844,21.023985 278.039062,20.993683 
	C278.878265,20.982336 279.600281,21.001291 280.683441,21.025295 
z"/>
<path fill="#BBCFE6" opacity="1.000000" stroke="none" 
	d="
M320.648071,21.019001 
	C322.079926,26.646442 322.079926,26.646442 317.233765,26.243565 
	C317.394897,24.614267 317.557892,22.984905 317.957855,21.172855 
	C318.895721,21.006609 319.596619,21.023050 320.648071,21.019001 
z"/>
<path fill="#97B4D2" opacity="1.000000" stroke="none" 
	d="
M321.836853,19.129486 
	C321.976013,19.664391 321.804504,20.303040 321.359528,21.001411 
	C321.232788,20.451834 321.379517,19.842533 321.836853,19.129486 
z"/>
<path fill="#C2D1E0" opacity="1.000000" stroke="none" 
	d="
M28.385674,36.224369 
	C28.292545,35.770332 28.452181,35.051918 28.916397,34.105865 
	C29.026798,34.572151 28.832617,35.266068 28.385674,36.224369 
z"/>
<path fill="#4481CA" opacity="1.000000" stroke="none" 
	d="
M325.182007,73.499710 
	C323.974640,75.948181 322.740173,77.995087 321.168396,80.220734 
	C305.934479,80.456200 291.037903,80.512917 275.697876,80.506577 
	C274.914001,79.234703 274.044525,77.885300 274.322113,76.840683 
	C275.754364,71.450493 277.480560,66.138405 279.948975,60.852295 
	C291.668427,60.905529 302.543060,60.905529 313.417664,60.905529 
	C313.401886,60.221821 313.386078,59.538109 313.370270,58.854401 
	C302.278900,58.854401 291.187500,58.854401 280.096130,58.854401 
	C279.655945,57.509861 279.215729,56.165329 278.921265,54.135036 
	C279.403442,52.356007 279.739807,51.262737 280.534363,50.135883 
	C285.729218,49.756161 290.465851,49.410023 295.411377,49.051067 
	C295.620270,49.038250 296.034210,48.976074 296.430786,49.000710 
	C298.150757,49.010670 299.474121,48.995998 301.157532,49.007389 
	C301.997467,49.065922 302.477356,49.098396 303.214722,49.428513 
	C305.335602,49.747681 307.199005,49.769199 309.497559,49.844460 
	C312.268646,49.862339 314.604645,49.826477 317.395386,49.884159 
	C321.519012,50.031174 325.187897,50.084644 328.856812,50.138115 
	C327.584930,56.111675 326.313019,62.085236 324.914154,68.414276 
	C313.294891,68.769753 301.802582,68.769753 290.310303,68.769753 
	C290.247681,69.455818 290.185089,70.141891 290.122498,70.827957 
	C291.505737,71.019218 292.888031,71.368027 294.272339,71.376076 
	C303.051331,71.427147 311.832214,71.322739 320.608704,71.479645 
	C322.133240,71.506905 323.639954,72.533249 325.182007,73.499710 
z"/>
<path fill="#C6D4E1" opacity="1.000000" stroke="none" 
	d="
M280.076172,50.169468 
	C279.739807,51.262737 279.403442,52.356007 278.917908,53.762001 
	C278.340698,54.049122 277.912567,54.023510 277.165405,53.953354 
	C277.593567,51.500191 277.117615,49.931667 274.049194,49.391235 
	C273.349365,47.818691 272.793030,46.900059 272.236725,45.981426 
	C272.153290,45.546078 272.069824,45.110733 272.372803,44.337662 
	C273.444977,43.376213 274.130737,42.752480 274.816467,42.128746 
	C273.960571,42.073074 273.104675,42.017399 272.248779,41.961723 
	C272.121307,40.500389 271.632965,38.959675 271.933655,37.592518 
	C272.856995,33.394714 274.082703,29.263411 275.609436,25.448195 
	C275.374878,29.142105 274.721649,32.494076 274.052582,36.199177 
	C274.364594,37.198860 274.692474,37.845413 275.020355,38.491966 
	C275.346558,37.669010 275.672791,36.846050 276.216736,35.832214 
	C276.956787,35.473282 277.479095,35.305225 278.001434,35.137177 
	C278.008148,35.610542 278.014862,36.083904 278.031067,36.914497 
	C277.407166,39.801315 276.321686,42.331715 276.326202,44.860168 
	C276.328552,46.175091 278.255310,47.486580 279.662048,49.241875 
	C280.011383,49.684128 280.076202,50.169472 280.076172,50.169468 
z"/>
<path fill="#C1D6EE" opacity="1.000000" stroke="none" 
	d="
M280.062927,59.150558 
	C291.187500,58.854401 302.278900,58.854401 313.370270,58.854401 
	C313.386078,59.538109 313.401886,60.221821 313.417664,60.905529 
	C302.543060,60.905529 291.668427,60.905529 280.331757,60.764889 
	C279.923035,60.231735 279.976410,59.839222 280.062927,59.150558 
z"/>
<path fill="#C1D6EE" opacity="1.000000" stroke="none" 
	d="
M192.499100,67.132233 
	C188.390808,67.468971 183.824829,67.874596 179.252563,67.965996 
	C172.796921,68.095032 166.336655,67.991692 159.401596,67.975632 
	C158.957642,67.778893 158.990433,67.594200 159.059113,67.130310 
	C170.076218,66.921028 181.057419,66.990944 192.499100,67.132233 
z"/>
<path fill="#4F89CD" opacity="1.000000" stroke="none" 
	d="
M57.764942,67.032211 
	C57.437160,64.947029 57.109379,62.861843 57.278496,60.281288 
	C58.843983,54.026958 59.912571,48.268002 60.981163,42.509041 
	C61.889477,37.710823 61.192181,32.262280 66.875443,29.495945 
	C67.779053,31.492361 68.794968,33.312149 68.480812,34.862396 
	C66.777321,43.268681 64.929604,51.657501 62.721844,59.943161 
	C61.991390,62.684544 62.156719,66.617088 57.764942,67.032211 
z"/>
<path fill="#E6ECF1" opacity="1.000000" stroke="none" 
	d="
M57.931236,67.397354 
	C62.156719,66.617088 61.991390,62.684544 62.721844,59.943161 
	C64.929604,51.657501 66.777321,43.268681 68.480812,34.862396 
	C68.794968,33.312149 67.779053,31.492361 67.238495,29.479046 
	C70.024910,28.540838 71.365829,30.411877 70.929718,32.673466 
	C68.835304,43.534828 66.587280,54.377041 63.878269,65.095749 
	C63.551399,66.389053 60.100502,66.892799 57.931236,67.397354 
z"/>
<path fill="#F5F7F9" opacity="1.000000" stroke="none" 
	d="
M42.933094,58.023445 
	C42.806950,59.378593 42.680809,60.733738 42.118172,62.664780 
	C41.467567,64.856476 41.253468,66.472275 41.039368,68.088074 
	C34.853756,68.088074 28.668146,68.088074 21.473732,68.088074 
	C22.794363,66.978035 23.419079,66.452942 24.709785,66.027802 
	C26.271423,66.137390 27.167072,66.147018 28.502178,66.110168 
	C37.630924,65.954933 37.629795,65.954514 40.502048,58.166649 
	C40.552963,58.028606 40.740852,57.941078 41.209061,57.867188 
	C42.013222,57.944077 42.473160,57.983761 42.933094,58.023445 
z"/>
<path fill="#BBC9D5" opacity="1.000000" stroke="none" 
	d="
M43.026039,57.650185 
	C42.473160,57.983761 42.013222,57.944077 41.233208,57.491211 
	C41.312740,55.369152 41.712353,53.660278 42.317024,51.770916 
	C42.015736,51.061726 41.509392,50.533024 40.868401,49.875359 
	C40.733753,49.746391 40.454681,49.499081 40.454681,49.499081 
	C42.046665,47.731373 43.638645,45.963665 45.230629,44.195953 
	C45.660877,44.416718 46.091125,44.637482 46.521374,44.858242 
	C45.387241,48.997803 44.253113,53.137363 43.026039,57.650185 
z"/>
<path fill="#BBCFE6" opacity="1.000000" stroke="none" 
	d="
M60.562168,42.600548 
	C59.912571,48.268002 58.843983,54.026958 57.416222,59.877338 
	C58.085758,54.209858 59.114468,48.450958 60.562168,42.600548 
z"/>
<path fill="#BECFE1" opacity="1.000000" stroke="none" 
	d="
M83.045807,41.358200 
	C83.636337,40.996990 84.053688,41.002911 84.784973,41.015484 
	C84.189667,44.663227 83.280418,48.304321 81.811142,52.183842 
	C81.251106,52.422272 80.888069,52.691906 80.888069,52.691906 
	C81.549591,49.036381 82.211105,45.380859 83.045807,41.358200 
z"/>
<path fill="#BBC9D5" opacity="1.000000" stroke="none" 
	d="
M41.417412,68.064224 
	C41.253468,66.472275 41.467567,64.856476 41.958282,63.043686 
	C42.088413,64.577919 41.941933,66.309151 41.417412,68.064224 
z"/>
<path fill="#B5C8DA" opacity="1.000000" stroke="none" 
	d="
M28.062721,66.156647 
	C27.167072,66.147018 26.271423,66.137390 25.093521,65.992661 
	C24.811270,65.857559 24.871414,65.398277 25.356251,65.199066 
	C26.333755,65.004456 26.826426,65.009064 27.345140,65.252129 
	C27.553133,65.763000 27.783646,65.985023 28.062721,66.156647 
z"/>
<path fill="#BBC9D5" opacity="1.000000" stroke="none" 
	d="
M27.319094,65.013672 
	C26.826426,65.009064 26.333755,65.004456 25.471718,64.998306 
	C25.379093,64.540039 25.655840,64.083328 26.471966,63.786407 
	C27.216530,64.135765 27.421711,64.325340 27.543362,64.635284 
	C27.459829,64.755646 27.319094,65.013672 27.319094,65.013672 
z"/>
<path fill="#BBC9D5" opacity="1.000000" stroke="none" 
	d="
M37.439529,52.492485 
	C37.649857,52.217701 37.860180,51.942917 38.547688,51.858044 
	C39.191433,52.256786 39.357994,52.465618 39.353317,52.809387 
	C38.968670,53.142235 38.758198,53.343224 38.275459,53.280884 
	C37.813339,52.840477 37.626434,52.666481 37.439529,52.492485 
z"/>
<path fill="#BBC9D5" opacity="1.000000" stroke="none" 
	d="
M38.777653,51.732632 
	C38.642796,51.112900 38.827908,50.862209 39.417305,50.697891 
	C39.748829,50.730545 40.003815,51.002872 40.006687,51.310303 
	C40.015835,51.822624 40.022114,52.027512 39.914474,52.356636 
	C39.800556,52.480877 39.524551,52.674446 39.524551,52.674446 
	C39.357994,52.465618 39.191433,52.256786 38.777653,51.732632 
z"/>
<path fill="#BBC9D5" opacity="1.000000" stroke="none" 
	d="
M39.627228,50.589096 
	C39.615059,50.150459 39.796486,49.906902 40.252289,49.608028 
	C40.454681,49.499081 40.733753,49.746391 40.757061,50.091599 
	C40.580555,50.706470 40.321705,50.895161 40.003815,51.002872 
	C40.003815,51.002872 39.748829,50.730545 39.627228,50.589096 
z"/>
<path fill="#0C3B59" opacity="1.000000" stroke="none" 
	d="
M80.900932,52.673843 
	C80.888069,52.691906 81.251106,52.422272 81.477211,52.412552 
	C81.525169,52.436504 81.347237,52.471275 81.041557,52.563320 
	C80.913597,52.619499 80.913795,52.655777 80.900932,52.673843 
z"/>
<path fill="#BBC9D5" opacity="1.000000" stroke="none" 
	d="
M36.416386,53.482903 
	C36.540291,53.171379 36.738838,52.918461 37.225780,52.608315 
	C37.626434,52.666481 37.813339,52.840477 38.107811,53.446297 
	C37.995918,54.102772 37.773880,54.324841 37.269131,54.275673 
	C36.798130,53.832314 36.607258,53.657608 36.416386,53.482903 
z"/>
<path fill="#BBC9D5" opacity="1.000000" stroke="none" 
	d="
M35.404991,54.478157 
	C35.525276,54.166229 35.721031,53.912544 36.204323,53.600002 
	C36.607258,53.657608 36.798130,53.832314 37.101997,54.441891 
	C36.995514,55.101776 36.773212,55.323971 36.265678,55.273449 
	C35.790504,54.828419 35.597748,54.653286 35.404991,54.478157 
z"/>
<path fill="#BBC9D5" opacity="1.000000" stroke="none" 
	d="
M34.388123,55.472290 
	C34.510799,55.160873 34.708347,54.907940 35.192879,54.595825 
	C35.597748,54.653286 35.790504,54.828419 36.098656,55.439766 
	C35.994675,56.101116 35.772320,56.323257 35.261066,56.270767 
	C34.779480,55.823513 34.583801,55.647900 34.388123,55.472290 
z"/>
<path fill="#BBC9D5" opacity="1.000000" stroke="none" 
	d="
M26.718496,63.646500 
	C26.560051,63.038509 26.759012,62.779869 27.504406,62.758629 
	C28.170448,63.142048 28.354609,63.337711 28.382370,63.692951 
	C28.018419,64.066216 27.818726,64.287010 27.626894,64.514915 
	C27.421711,64.325340 27.216530,64.135765 26.718496,63.646500 
z"/>
<path fill="#BBC9D5" opacity="1.000000" stroke="none" 
	d="
M27.722212,62.641888 
	C27.590099,62.037292 27.783396,61.783989 28.512949,61.763748 
	C29.171419,62.144859 29.354971,62.339699 29.372501,62.701580 
	C28.987583,63.093895 28.765013,63.315479 28.538767,63.533375 
	C28.354609,63.337711 28.170448,63.142048 27.722212,62.641888 
z"/>
<path fill="#BBC9D5" opacity="1.000000" stroke="none" 
	d="
M28.724133,61.647259 
	C28.591084,61.043495 28.784073,60.789890 29.514587,60.768600 
	C30.173191,61.147598 30.356567,61.341690 30.373699,61.702858 
	C29.988438,62.095463 29.765463,62.316994 29.538525,62.534538 
	C29.354971,62.339699 29.171419,62.144859 28.724133,61.647259 
z"/>
<path fill="#BBC9D5" opacity="1.000000" stroke="none" 
	d="
M29.725903,60.652225 
	C29.592335,60.049694 29.785389,59.796204 30.516466,59.773804 
	C31.174873,60.150368 31.357971,60.343590 31.374727,60.703781 
	C30.989378,61.096252 30.766565,61.317928 30.539946,61.535778 
	C30.356567,61.341690 30.173191,61.147598 29.725903,60.652225 
z"/>
<path fill="#BBC9D5" opacity="1.000000" stroke="none" 
	d="
M30.727818,59.657551 
	C30.593830,59.056355 30.786991,58.802910 31.518700,58.779549 
	C32.176758,59.153973 32.359459,59.346466 32.375576,59.705505 
	C31.989941,60.097240 31.767302,60.318829 31.541071,60.536812 
	C31.357971,60.343590 31.174873,60.150368 30.727818,59.657551 
z"/>
<path fill="#BBC9D5" opacity="1.000000" stroke="none" 
	d="
M33.378784,56.473183 
	C33.499760,56.161427 33.695744,55.907597 34.177433,55.591988 
	C34.583801,55.647900 34.779480,55.823513 35.094067,56.437126 
	C34.993507,57.100166 34.770916,57.322075 34.257881,57.269257 
	C33.773300,56.822834 33.576042,56.648006 33.378784,56.473183 
z"/>
<path fill="#BBC9D5" opacity="1.000000" stroke="none" 
	d="
M31.730164,58.663429 
	C31.596418,58.062698 31.790363,57.808723 32.522320,57.784142 
	C33.177868,58.156292 33.359200,58.347759 33.376450,58.708183 
	C32.991642,59.100460 32.768242,59.321068 32.542160,59.538963 
	C32.359459,59.346466 32.176758,59.153973 31.730164,58.663429 
z"/>
<path fill="#BBC9D5" opacity="1.000000" stroke="none" 
	d="
M32.734726,57.668316 
	C32.583702,57.093681 32.758636,56.864536 33.188251,56.578773 
	C33.576042,56.648006 33.773300,56.822834 34.090721,57.435921 
	C33.991184,58.099640 33.767731,58.321323 33.540535,58.539227 
	C33.359200,58.347759 33.177868,58.156292 32.734726,57.668316 
z"/>
<path fill="#4581CA" opacity="1.000000" stroke="none" 
	d="
M262.564636,79.078796 
	C261.733246,79.605202 261.095581,79.844719 260.148254,80.242462 
	C245.887100,80.496727 231.935638,80.592766 217.519791,80.707848 
	C216.429703,78.577415 215.061890,76.332558 215.323517,74.297150 
	C215.991821,69.098122 217.386398,63.992458 218.757172,57.607014 
	C223.206543,58.354637 227.789917,59.124775 232.733093,60.086891 
	C232.766068,61.624031 232.439209,62.969196 231.687164,64.802643 
	C230.844162,66.641449 230.426346,67.991982 229.759308,70.148109 
	C234.239578,70.148109 237.987381,70.066719 241.730484,70.164673 
	C250.113007,70.384041 258.493195,70.692642 266.874359,70.964905 
	C266.624390,71.482689 266.374451,72.000473 266.014648,72.791397 
	C264.856018,74.973663 263.807190,76.882782 262.564636,79.078796 
z"/>
<path fill="#000000" opacity="1.000000" stroke="none" 
	d="
M251.675262,65.016747 
	C251.987274,65.785881 252.002838,66.469948 251.533356,67.562782 
	C246.388199,67.928459 241.728073,67.885376 237.067932,67.842285 
	C237.479126,65.581566 237.890305,63.320839 238.355881,60.761009 
	C241.869141,61.491489 245.466309,62.239422 249.470993,63.006321 
	C250.378616,63.660755 250.878708,64.296219 251.675262,65.016747 
z"/>
<path fill="#CCD9E9" opacity="1.000000" stroke="none" 
	d="
M236.647018,67.914948 
	C241.728073,67.885376 246.388199,67.928459 251.509125,67.904251 
	C255.948486,67.934845 259.937653,67.900764 263.898682,68.217834 
	C264.969299,68.303535 265.954742,69.452927 266.926819,70.539490 
	C258.493195,70.692642 250.113007,70.384041 241.730484,70.164673 
	C237.987381,70.066719 234.239578,70.148109 229.759308,70.148109 
	C230.426346,67.991982 230.844162,66.641449 231.604095,65.142181 
	C231.536316,68.616653 233.884338,68.297668 236.647018,67.914948 
z"/>
<path fill="#13415F" opacity="1.000000" stroke="none" 
	d="
M250.101257,58.401573 
	C250.383438,58.023472 250.656540,58.109337 250.799911,58.743412 
	C250.533051,58.899548 250.340378,58.757519 250.101257,58.401573 
z"/>
<path fill="#BECFE1" opacity="1.000000" stroke="none" 
	d="
M253.212494,62.040863 
	C258.636993,62.051926 264.359528,63.406578 268.754028,57.833599 
	C268.753754,62.189510 265.680359,63.746365 261.802917,64.155891 
	C259.527557,64.396210 257.204926,64.188576 254.455933,64.091614 
	C253.756790,63.447899 253.505264,62.895020 253.212494,62.040863 
z"/>
<path fill="#164260" opacity="1.000000" stroke="none" 
	d="
M216.014862,41.363361 
	C216.318253,40.533958 216.705078,40.076672 217.062332,39.307152 
	C217.383316,37.152813 217.121185,34.402214 218.216080,33.663826 
	C220.289352,32.265614 223.124802,31.936853 225.696655,31.436529 
	C225.942459,31.388708 226.562408,33.264122 226.953171,34.597229 
	C224.419846,37.206699 221.942001,39.465633 219.235168,41.977989 
	C218.036880,42.066105 217.067596,41.900791 216.014862,41.363361 
z"/>
<path fill="#000000" opacity="1.000000" stroke="none" 
	d="
M126.535446,45.042564 
	C126.866821,48.473091 126.823730,51.870667 126.917221,55.923500 
	C127.035355,56.982731 127.016891,57.386707 126.998436,57.790684 
	C123.316826,57.848534 119.635208,57.906384 115.495872,57.900097 
	C118.024414,53.812782 120.974365,49.761475 124.041946,45.801277 
	C124.434586,45.294392 125.439636,45.261887 126.535446,45.042564 
z"/>
<path fill="#BECFE1" opacity="1.000000" stroke="none" 
	d="
M90.434509,40.020920 
	C91.828217,39.785748 93.646065,39.605400 95.721298,39.677654 
	C94.272018,39.978756 92.565331,40.027252 90.434509,40.020920 
z"/>
<path fill="#4F89CD" opacity="1.000000" stroke="none" 
	d="
M127.318344,57.950630 
	C127.016891,57.386707 127.035355,56.982731 127.116013,56.281937 
	C129.371216,55.972466 131.564224,55.959812 134.046783,56.098854 
	C134.264694,57.235226 134.193085,58.219910 134.022964,59.498592 
	C130.270035,65.058456 129.368561,60.035694 127.318344,57.950630 
z"/>
<path fill="#B5CCE7" opacity="1.000000" stroke="none" 
	d="
M329.121094,49.946281 
	C325.187897,50.084644 321.519012,50.031174 317.411438,49.543999 
	C316.972382,48.426586 316.971954,47.742882 316.971527,47.059174 
	C320.685669,47.017025 324.399841,46.974876 328.509094,46.826729 
	C329.064575,47.731968 329.224976,48.743206 329.121094,49.946281 
z"/>
<path fill="#97B4D2" opacity="1.000000" stroke="none" 
	d="
M335.220398,23.836193 
	C335.120239,23.667112 335.247742,23.335976 335.568634,22.814762 
	C335.657379,22.974504 335.552734,23.324320 335.220398,23.836193 
z"/>
<path fill="#97B4D2" opacity="1.000000" stroke="none" 
	d="
M334.203491,28.838020 
	C334.102478,28.665737 334.233307,28.332239 334.561401,27.809288 
	C334.650848,27.972160 334.543091,28.324482 334.203491,28.838020 
z"/>
<path fill="#BBCCDC" opacity="1.000000" stroke="none" 
	d="
M272.155853,46.274723 
	C272.793030,46.900059 273.349365,47.818691 273.857971,49.116241 
	C273.163452,48.917660 272.516632,48.340153 271.808167,47.421425 
	C271.855988,46.909470 271.965485,46.738743 272.155853,46.274723 
z"/>
<path fill="#D6E2EF" opacity="1.000000" stroke="none" 
	d="
M316.941254,46.643822 
	C316.971954,47.742882 316.972382,48.426586 316.956726,49.450455 
	C314.604645,49.826477 312.268646,49.862339 309.484680,49.530762 
	C309.010223,48.743298 308.983734,48.323269 308.957245,47.903244 
	C314.035095,48.488625 313.019867,44.218510 313.876953,41.574112 
	C314.653229,39.179096 314.310394,37.441109 311.455109,36.063046 
	C309.091980,34.922501 307.440369,32.307663 305.473541,30.346029 
	C305.730774,29.986391 305.988037,29.626755 306.245300,29.267117 
	C307.959198,29.267117 309.673096,29.267117 311.779694,29.267117 
	C310.781281,34.455742 314.123016,35.957169 318.790955,36.286495 
	C318.117279,39.849056 317.514130,43.038765 316.941254,46.643822 
z"/>
<path fill="#214C68" opacity="1.000000" stroke="none" 
	d="
M300.797485,48.981323 
	C299.474121,48.995998 298.150757,49.010670 296.203186,48.660679 
	C292.653687,47.891418 289.728394,47.486816 286.803070,47.082214 
	C288.657623,45.865788 290.512207,44.649357 292.981537,43.313766 
	C295.996704,45.123505 298.397095,47.052414 300.797485,48.981323 
z"/>
<path fill="#C2D1E0" opacity="1.000000" stroke="none" 
	d="
M301.157532,49.007385 
	C298.397095,47.052414 295.996704,45.123505 293.237732,43.102047 
	C293.787048,41.995811 294.694916,40.982128 295.431519,40.159653 
	C298.404388,42.299259 300.875519,44.077759 303.631470,46.323147 
	C303.596588,47.570316 303.276917,48.350590 302.957245,49.130867 
	C302.477356,49.098396 301.997467,49.065922 301.157532,49.007385 
z"/>
<path fill="#B5CCE7" opacity="1.000000" stroke="none" 
	d="
M280.534363,50.135887 
	C280.076202,50.169472 280.011383,49.684128 279.990051,49.440636 
	C281.319031,49.120296 282.669342,49.043446 284.893280,48.942261 
	C288.912109,48.966579 292.057312,49.015232 295.202515,49.063881 
	C290.465851,49.410023 285.729218,49.756161 280.534363,50.135887 
z"/>
<path fill="#B5CCE7" opacity="1.000000" stroke="none" 
	d="
M303.214722,49.428513 
	C303.276917,48.350590 303.596588,47.570316 303.943573,46.476871 
	C305.389069,46.741665 306.807251,47.319626 308.591339,47.900414 
	C308.983734,48.323269 309.010223,48.743298 309.049561,49.477020 
	C307.199005,49.769199 305.335602,49.747681 303.214722,49.428513 
z"/>
<path fill="#A6BACC" opacity="1.000000" stroke="none" 
	d="
M295.411377,49.051064 
	C292.057312,49.015232 288.912109,48.966579 285.296082,48.890953 
	C285.275208,48.270344 285.725159,47.676708 286.489075,47.082645 
	C289.728394,47.486816 292.653687,47.891418 295.806610,48.636047 
	C296.034210,48.976074 295.620270,49.038250 295.411377,49.051064 
z"/>
<path fill="#103F5C" opacity="1.000000" stroke="none" 
	d="
M278.374542,35.089706 
	C277.479095,35.305225 276.956787,35.473282 275.894531,35.801903 
	C274.925903,35.923660 274.497162,35.884853 274.068451,35.846046 
	C274.721649,32.494076 275.374878,29.142105 275.976074,25.374893 
	C276.349854,23.801735 276.775665,22.643820 277.441803,21.272057 
	C277.758209,21.706007 277.990753,22.380426 277.885803,22.997417 
	C276.981140,28.314047 279.208771,31.061493 284.935333,31.985931 
	C282.872772,33.004700 280.810211,34.023468 278.374542,35.089706 
z"/>
<path fill="#BBCCDC" opacity="1.000000" stroke="none" 
	d="
M272.198303,42.302704 
	C273.104675,42.017399 273.960571,42.073074 274.816467,42.128746 
	C274.130737,42.752480 273.444977,43.376213 272.425903,44.007042 
	C272.110962,43.557323 272.129364,43.100506 272.198303,42.302704 
z"/>
<path fill="#BBCCDC" opacity="1.000000" stroke="none" 
	d="
M274.052582,36.199177 
	C274.497162,35.884853 274.925903,35.923660 275.676819,35.992779 
	C275.672791,36.846050 275.346558,37.669010 275.020355,38.491966 
	C274.692474,37.845413 274.364594,37.198860 274.052582,36.199177 
z"/>
<path fill="#4E86CD" opacity="1.000000" stroke="none" 
	d="
M33.376450,58.708183 
	C33.767731,58.321323 33.991184,58.099640 34.378044,57.707520 
	C34.770916,57.322075 34.993507,57.100166 35.379978,56.708771 
	C35.772320,56.323257 35.994675,56.101116 36.381073,55.709671 
	C36.773212,55.323971 36.995514,55.101776 37.382126,54.710545 
	C37.773880,54.324841 37.995918,54.102772 38.383026,53.712708 
	C38.758198,53.343224 38.968670,53.142235 39.353317,52.809387 
	C39.524551,52.674446 39.800556,52.480877 40.260277,52.299564 
	C41.183990,52.062637 41.647976,52.007023 42.111965,51.951405 
	C41.712353,53.660278 41.312740,55.369152 40.888977,57.454002 
	C40.740852,57.941078 40.552963,58.028606 40.502048,58.166649 
	C37.629795,65.954514 37.630924,65.954933 28.502178,66.110168 
	C27.783646,65.985023 27.553133,65.763000 27.345140,65.252129 
	C27.319094,65.013672 27.459829,64.755646 27.543362,64.635284 
	C27.818726,64.287010 28.018419,64.066216 28.382370,63.692951 
	C28.765013,63.315479 28.987583,63.093895 29.372501,62.701580 
	C29.765463,62.316994 29.988438,62.095463 30.373699,61.702858 
	C30.766565,61.317928 30.989378,61.096252 31.374727,60.703781 
	C31.767302,60.318829 31.989941,60.097240 32.375576,59.705505 
	C32.768242,59.321068 32.991642,59.100460 33.376450,58.708183 
z"/>
<path fill="#B5C8DA" opacity="1.000000" stroke="none" 
	d="
M42.317024,51.770916 
	C41.647976,52.007023 41.183990,52.062637 40.374195,52.175323 
	C40.022114,52.027512 40.015835,51.822624 40.006687,51.310303 
	C40.321705,50.895161 40.580555,50.706470 40.891708,50.220562 
	C41.509392,50.533024 42.015736,51.061726 42.317024,51.770916 
z"/>
</svg>